<?xml version="1.0" encoding="utf-8"?>
<!-- Generator: Adobe Illustrator 26.2.1, SVG Export Plug-In . SVG Version: 6.00 Build 0)  -->
<svg version="1.1" id="Capa_1" xmlns="http://www.w3.org/2000/svg" xmlns:xlink="http://www.w3.org/1999/xlink" x="0px" y="0px"
	 viewBox="0 0 24 24" style="enable-background:new 0 0 24 24;" xml:space="preserve">
<style type="text/css">
	.st0{fill:#FFADF8;}
	.st1{fill:#321466;}
</style>
<path id="Rectangle_76" class="st0" d="M3.2,0h17.7C22.6,0,24,1.4,24,3.2v17.7c0,1.7-1.4,3.2-3.2,3.2H3.2C1.4,24,0,22.6,0,20.8V3.2
	C0,1.4,1.4,0,3.2,0z"/>
<g>
	<g>
		<path class="st1" d="M20.8,2H3.2C2.9,2,2.6,2.2,2.3,2.3C2.2,2.6,2,2.9,2,3.2v17.5C2,21.4,2.6,22,3.2,22h17.5
			c0.3,0,0.7-0.2,0.9-0.3c0.3-0.2,0.3-0.5,0.3-0.9V3.2C22,2.6,21.4,2,20.8,2z M20.8,20.8H3.2c-0.1,0-0.1-0.1-0.1-0.1V3.2v0
			c0,0,0,0,0,0h17.5c0.1,0,0.1,0.1,0.1,0.1V20.8z M9.5,5.6c0-0.7-0.5-1.2-1.2-1.2H8.2C7.5,4.5,7.1,5.1,7.1,5.6c0,0.5,0.3,1.2,1,1.2
			h0.2C8.9,6.8,9.5,6.2,9.5,5.6z M18.2,7.3c-0.1,0-0.3-0.1-0.3-0.1h-0.8c-0.2,0-0.5,0.2-0.5,0.5v11.4c0,0.2,0.2,0.4,0.5,0.4
			c0.3,0,0.5-0.2,0.5-0.4V8.2h0.1c0.2,0,0.3,0.2,0.3,0.3v4.2c0.1,0.3,0.2,0.4,0.5,0.4s0.5-0.1,0.5-0.4V8.5
			C19.1,8.2,18.7,7.5,18.2,7.3z M7.5,7.3H7.3C7.1,7.3,6.8,7.4,6.6,7.7C6.4,7.8,6.3,8,6.2,8.2c-0.3,1.1-1.2,4.1-1.2,4.2
			c0,0.2,0.2,0.5,0.5,0.5c0.2,0,0.3,0,0.4-0.2c0.1-0.1,0.1-0.1,0.1-0.2c0.3-0.8,0.6-1.7,0.8-2.6C6.8,9.8,6.9,9.5,7,9.3v1.2
			c-0.3,1.1-1.2,3.9-1.2,4.1s0.2,0.5,0.4,0.5h0.7v4c0,0.2,0.3,0.4,0.5,0.4c0.2,0,0.5-0.2,0.5-0.4v-4.6c0-0.2-0.2-0.4-0.4-0.4H6.9
			C7.2,13.3,8,10.9,8,10.8V7.7C8,7.4,7.7,7.3,7.5,7.3z M10.3,8.2c-0.2-0.5-0.7-1-1.1-1H9.1c-0.2,0-0.5,0.2-0.5,0.4v3.2
			c0,0.1,0.6,1.7,0.7,2.3c0.1,0.2,0.1,0.3,0.2,0.5c0,0.2,0.1,0.4,0.2,0.6H9.1c-0.2,0-0.4,0.2-0.4,0.4v4.6c0,0.2,0.2,0.4,0.5,0.4
			c0.2,0,0.5-0.2,0.5-0.4v-4h0.8c0.2,0,0.4-0.2,0.4-0.5c0-0.2-0.8-2.6-1.1-3.4c-0.1-0.2-0.2-0.4-0.2-0.7V9.3
			c0.2,0.7,0.4,1.4,0.7,2.2c0.1,0.5,0.2,0.9,0.4,1.3C10.8,13,11,13,11.1,13c0.2,0,0.5-0.2,0.5-0.5c0-0.2-0.7-2.4-0.9-3.1
			C10.6,9,10.4,8.7,10.3,8.2z M15.4,7.3h-0.5h-0.2c-0.2,0.1-0.4,0.1-0.7,0.2c-0.4,0.3-0.6,0.8-0.6,1.1v4.3c0.1,0.2,0.2,0.4,0.5,0.4
			c0.2,0,0.5-0.1,0.5-0.4V8.6c0-0.2,0.2-0.3,0.3-0.3h0.1v10.8c0,0.3,0.2,0.4,0.5,0.4c0.2,0,0.5-0.2,0.5-0.4V7.7
			C15.8,7.5,15.7,7.3,15.4,7.3z M17.5,5.6c0-0.8-0.5-1.2-1.2-1.2c-0.8,0-1.2,0.6-1.2,1.2c0,0.7,0.5,1.2,1.2,1.2
			C17,6.8,17.5,6.2,17.5,5.6z"/>
	</g>
</g>
</svg>
