<?xml version="1.0" encoding="utf-8"?>
<!-- Generator: Adobe Illustrator 26.2.1, SVG Export Plug-In . SVG Version: 6.00 Build 0)  -->
<svg version="1.1" id="Capa_1" xmlns="http://www.w3.org/2000/svg" xmlns:xlink="http://www.w3.org/1999/xlink" x="0px" y="0px"
	 viewBox="0 0 24 24" style="enable-background:new 0 0 24 24;" xml:space="preserve">
<style type="text/css">
	.st0{fill:url(#SVGID_1_);}
</style>
<linearGradient id="SVGID_1_" gradientUnits="userSpaceOnUse" x1="12" y1="4.3536" x2="12" y2="21.171">
	<stop  offset="0" style="stop-color:#FFFFFF"/>
	<stop  offset="1" style="stop-color:#808080"/>
</linearGradient>
<path class="st0" d="M21.9,9.6h-1.7c0.4-0.4,0.7-0.9,1-1.5c0.3-0.7,0.4-1.5,0.3-2.4c0-0.2-0.2-0.3-0.3-0.3h-1.6
	c-0.2-1.2-1.3-2-2.5-2c-1.2,0-2.2,0.8-2.5,2h-1.6c-0.2,0-0.3,0.1-0.3,0.3c-0.1,1-0.1,2.1,0.9,3.5c0.1,0.2,0.3,0.3,0.4,0.5H9.4
	c0.4-0.4,0.7-0.9,1-1.5c0.3-0.7,0.4-1.5,0.3-2.4c0-0.2-0.2-0.3-0.3-0.3H8.9c-0.2-1.2-1.3-2-2.5-2c-1.3,0-2.2,0.8-2.5,2H2.3
	C2.1,5.5,2,5.6,2,5.8c-0.1,1-0.1,2.1,0.9,3.5C3,9.5,3.2,9.6,3.4,9.8H1.8C0.8,9.8,0,10.6,0,11.6v7.2c0,0.9,0.8,1.8,1.8,1.8h20.4
	c0.9,0,1.8-0.8,1.8-1.8v-7.2C23.7,10.4,22.8,9.6,21.9,9.6z M17.9,5.3h-1.6C16.8,4.9,17.6,4.9,17.9,5.3z M20,6.9
	c-0.2,1.4-1.5,2.4-2.9,2.4c-1.5,0-2.6-1-2.8-2.4H20z M6.9,5.3H5.3C5.8,4.9,6.6,4.9,6.9,5.3z M3.2,6.9H9C8.8,8.2,7.5,9.3,6.1,9.3
	C4.7,9.3,3.5,8.2,3.2,6.9z M22.5,18.7c0,0.1-0.1,0.2-0.3,0.2H1.8c-0.2,0-0.3-0.1-0.3-0.2v-7.3c0-0.1,0.1-0.2,0.3-0.2h20.3
	c0.2,0,0.3,0.1,0.3,0.2V18.7z"/>
</svg>
