<?xml version="1.0" encoding="utf-8"?>
<!-- Generator: Adobe Illustrator 26.2.1, SVG Export Plug-In . SVG Version: 6.00 Build 0)  -->
<svg version="1.1" baseProfile="tiny" id="Capa_1" xmlns="http://www.w3.org/2000/svg" xmlns:xlink="http://www.w3.org/1999/xlink"
	 x="0px" y="0px" viewBox="0 0 24 24" overflow="visible" xml:space="preserve">
<path id="Rectangle_76" fill="#FFADF8" d="M3.2,0h17.7C22.6,0,24,1.4,24,3.2v17.7c0,1.7-1.4,3.2-3.2,3.2H3.2C1.4,24,0,22.6,0,20.8
	V3.2C0,1.4,1.4,0,3.2,0z"/>
<path fill="#321466" d="M20.3,10h-1.4c0.3-0.3,0.6-0.8,0.9-1.2c0.3-0.6,0.3-1.2,0.3-2c0-0.2-0.2-0.3-0.3-0.3h-1.3
	c-0.2-1-1-1.7-2.1-1.7c-1,0-1.8,0.7-2.1,1.7h-1.3c-0.2,0-0.3,0.1-0.3,0.3c-0.1,0.9-0.1,1.7,0.8,2.9c0.1,0.2,0.3,0.3,0.3,0.4H9.9
	c0.3-0.3,0.6-0.8,0.9-1.2c0.3-0.6,0.3-1.2,0.3-2c0-0.2-0.2-0.3-0.3-0.3H9.4c-0.2-1-1-1.7-2.1-1.7c-1,0-1.8,0.7-2.1,1.7H3.9
	c-0.2,0-0.3,0.1-0.3,0.3C3.6,7.7,3.6,8.6,4.4,9.7c0.1,0.2,0.3,0.3,0.3,0.4H3.5c-0.8,0-1.5,0.7-1.5,1.5v6c0,0.8,0.7,1.5,1.5,1.5h17
	c0.8,0,1.5-0.7,1.5-1.5v-6C21.7,10.7,21,10,20.3,10z M16.9,6.4h-1.3C16,6.1,16.7,6.1,16.9,6.4z M18.7,7.7c-0.2,1.1-1.2,2-2.4,2
	c-1.2,0-2.2-0.9-2.4-2H18.7z M7.8,6.4H6.5C6.8,6.1,7.5,6.1,7.8,6.4z M4.7,7.7h4.8c-0.2,1.1-1.2,2-2.4,2C5.9,9.7,4.9,8.9,4.7,7.7z
	 M20.7,17.6c0,0.1-0.1,0.2-0.3,0.2H3.5c-0.2,0-0.3-0.1-0.3-0.2v-6.1c0-0.1,0.1-0.2,0.3-0.2h16.9c0.2,0,0.3,0.1,0.3,0.2V17.6z"/>
</svg>
