<?xml version="1.0" encoding="utf-8"?>
<!-- Generator: Adobe Illustrator 26.2.1, SVG Export Plug-In . SVG Version: 6.00 Build 0)  -->
<svg version="1.1" baseProfile="tiny" id="Capa_1" xmlns="http://www.w3.org/2000/svg" xmlns:xlink="http://www.w3.org/1999/xlink"
	 x="0px" y="0px" viewBox="0 0 24 24" overflow="visible" xml:space="preserve">
<path id="Rectangle_76" fill="#FFADF8" d="M3.2,0h17.7C22.6,0,24,1.4,24,3.2v17.7c0,1.7-1.4,3.2-3.2,3.2H3.2C1.4,24,0,22.6,0,20.8
	V3.2C0,1.4,1.4,0,3.2,0z"/>
<path fill="#321466" d="M21.9,15.5c-0.1,0.4-0.2,0.8-0.3,1.2c-0.4,1-1,1.6-1.9,2.2c-0.9,0.6-1.9,0.9-2.9,1c-0.6,0-1.1-0.4-1.1-1
	v-7.3c0-0.7,0.4-1.1,1.1-1.1H17C16.5,9,14.7,7.1,12.1,7c-2.7-0.1-4.7,1.8-5.2,3.6h0.4c0.4,0.1,0.7,0.4,0.8,0.8v7.5
	c0,0.7-0.4,1.1-1.1,1.1c-1.6-0.1-2.9-0.7-4-2c-1.3-1.4-1.3-3.6-0.3-5.1c0.3-0.4,0.6-0.6,0.9-1c0.1-0.1,0.2-0.2,0.2-0.4
	c0.1-0.9,0.3-1.7,0.7-2.6C5,7.9,5.6,7,6.4,6.3c0.9-0.8,1.9-1.4,3.1-1.8c0.9-0.3,1.9-0.4,2.9-0.4c1.2,0.1,2.2,0.4,3.2,0.8
	c1.3,0.6,2.2,1.5,3.1,2.7c0.7,1,1.2,2.1,1.3,3.3c0,0.2,0,0.4,0.1,0.6c0,0.1,0.1,0.2,0.2,0.3c0.6,0.5,1.2,1.2,1.4,1.9
	c0.2,0.4,0.2,0.8,0.3,1.2C21.9,15.2,21.9,15.3,21.9,15.5z"/>
</svg>
