<?xml version="1.0" encoding="utf-8"?>
<!-- Generator: Adobe Illustrator 26.2.1, SVG Export Plug-In . SVG Version: 6.00 Build 0)  -->
<svg version="1.0" id="Capa_1" xmlns="http://www.w3.org/2000/svg" xmlns:xlink="http://www.w3.org/1999/xlink" x="0px" y="0px"
	 viewBox="0 0 24 24" enable-background="new 0 0 24 24" xml:space="preserve">
<g>
	<linearGradient id="SVGID_1_" gradientUnits="userSpaceOnUse" x1="11.6779" y1="0.8035" x2="12.2065" y2="26.0398">
		<stop  offset="0" style="stop-color:#FFFFFF"/>
		<stop  offset="1" style="stop-color:#000000"/>
	</linearGradient>
	<path fill="url(#SVGID_1_)" d="M4.2,7c1.6,1.8,3.3,3.4,4.7,5.2c1,1.2,1.9,2.8,2.5,4.4c1.1,2.8,2.8,4.4,5.8,4.4
		c1.8,0,3.6-0.2,5.5-0.4c0.7-0.1,1.1-0.5,0.7-1.2c-0.2-0.4-0.6-0.7-1-0.8c-1.2-0.4-2.7-0.8-3.4-2.1c-0.6-1.1-1.5-1.3-2.7-1.2
		c-0.7,0.1-1.3-0.5-1.3-1.2c-0.1-0.7,0.5-1.2,1.3-1.3c0.4-0.1,1,0,1.3-0.1c0.2-0.1,0.4-0.2,0.5-0.4c-0.1-0.1-0.2-0.4-0.4-0.4
		c-0.4-0.2-0.8-0.4-1.2-0.5c-0.7-0.4-1.1-1.1-0.8-1.7c0.4-0.6,1-1,1.8-0.7c0.5-0.1,1.1,0.1,1.7,0.4c0.4-0.6,0.5-1.2,0.8-1.7l1-1.6
		c1-1.6,1-2.1-0.6-2.9c-0.4-0.1-0.5-0.4-0.8-0.4c-1.2-0.5-2.2-0.4-2.8,0.7c-0.5,0.8-0.8,1.8-1.2,2.8c-0.2,0.5-0.4,1.1-0.4,1.6
		c-0.1-0.7-0.1-1.3,0-2.1c0-0.6-0.1-1-0.6-1.2c-0.8-0.4-1.2-1.1-1.2-2.1c0-0.4,0.1-0.6,0-0.8c-0.4-0.5-0.7-1.2-1.2-1.5
		c-0.4-0.2-1,0-1.3,0.4C9,1.7,7.2,3.1,5.3,4.6c-0.6,0.5-1.2,1-2.1,1.6C3.8,6.5,4,6.9,4.2,7z M20,10.9c0-0.1-0.1-0.4-0.2-0.4
		c-0.8-0.4-1.7-0.6-2.5-0.8c-0.2,0-0.4,0.2-0.6,0.4c0.1,0.2,0.1,0.4,0.2,0.4l2.8,1C19.8,11.1,20,10.9,20,10.9z M18.9,13.3
		c-0.8-0.1-1.6-0.1-2.4,0c-0.1,0-0.4,0.4-0.4,0.4c0.2,0.1,0.4,0.4,0.5,0.4h1.1h1.2c0.2-0.1,0.4-0.4,0.5-0.4
		C19.2,13.7,19,13.3,18.9,13.3z M23.8,21.4h-0.4c-2.3,0.1-4.5,0.4-6.8,0.4c-2.9-0.1-5-1.8-5.7-4.4c-0.4-1.6-1.1-2.9-2.1-4.1
		C7,11.2,5.2,9.4,3.5,7.4C3.2,7.2,3,7,2.8,6.9c-0.5,0.5-1,0.8-1.5,1.3S0.5,9.1,0,9.4C0.5,10,1,10.5,1.3,11c0-0.1,0.1-0.2,0.1-0.4
		c0.5,0.1,1.2,0,1.6,0.4c0.4,0.4,0.5,1,0.4,1.3c-0.1,0.5,0,0.7,0.4,1c0.4,0.4,0.5,1.1,1.3,0.7c1-0.4,1.8,0.5,1.7,1.5
		c-0.1,0.2-0.2,0.4-0.2,0.5c0.5,0.6,1,1.1,1.3,1.6c0.2-0.2,0.4-0.4,0.5-0.4c0.1-0.1,0.4-0.2,0.4-0.4c1.1,2.8,2.3,5.3,5.1,6.5
		c0.5-0.4,1.1-1,1.5-0.8c0.4,0.1,1,0.7,1.3,1.1c0,0.2,0.2,0.2,0.4,0.2c0.6,0,1.2,0.2,1.7-0.6c0.4-0.5,1.2-0.4,1.8,0.1
		c0.2,0.2,0.4,0.4,0.6,0.4c1-0.2,1.9-0.5,2.9-0.7C24,22.3,23.9,21.9,23.8,21.4z"/>
</g>
</svg>
