<?xml version="1.0" encoding="utf-8"?>
<!-- Generator: Adobe Illustrator 26.2.1, SVG Export Plug-In . SVG Version: 6.00 Build 0)  -->
<svg version="1.0" id="Capa_1" xmlns="http://www.w3.org/2000/svg" xmlns:xlink="http://www.w3.org/1999/xlink" x="0px" y="0px"
	 viewBox="0 0 24 24" enable-background="new 0 0 24 24" xml:space="preserve">
<linearGradient id="SVGID_1_" gradientUnits="userSpaceOnUse" x1="11.7959" y1="7.0496" x2="12.0601" y2="22.8388">
	<stop  offset="0" style="stop-color:#FFFFFF"/>
	<stop  offset="1" style="stop-color:#000000"/>
</linearGradient>
<path fill="url(#SVGID_1_)" d="M16.9,5.7c1.9,1.2,3.2,2.8,4.2,4.7c1,1.8,1.2,3.7,1.1,5.9H1.8c-0.1-1.9,0.2-3.7,1-5.5
	c0.8-2,2.2-3.8,4.2-5c0.1,1,0.2,1.8,0.4,2.5c0.1,1.3,0.4,2.6,0.4,4c0.1,0.5,0.5,0.8,1,0.8c0.5,0,0.8-0.4,0.8-1
	c-0.1-1-0.2-1.7-0.4-2.6c-0.2-1.7-0.4-3.2-0.6-5c0-0.5,0.4-1,1-1h5c0.5,0,1,0.4,1,1c-0.2,1.6-0.4,3.2-0.5,4.9
	c-0.1,0.8-0.2,1.7-0.4,2.5c-0.1,0.5,0.4,1,0.8,1c0.5,0,1-0.4,1-1C16.4,10,16.7,7.9,16.9,5.7z M12,20.5H1.3c-0.8,0-1.4-0.5-1.3-1.3
	c0-0.6,0.5-1.2,1.2-1.2h21.3c0.8,0,1.3,0.5,1.4,1.2c0,0.7-0.5,1.3-1.3,1.4h-3.6C16.7,20.5,14.3,20.5,12,20.5z"/>
</svg>
