<?xml version="1.0" encoding="utf-8"?>
<!-- Generator: Adobe Illustrator 26.2.1, SVG Export Plug-In . SVG Version: 6.00 Build 0)  -->
<svg version="1.1" baseProfile="tiny" id="Capa_1" xmlns="http://www.w3.org/2000/svg" xmlns:xlink="http://www.w3.org/1999/xlink"
	 x="0px" y="0px" viewBox="0 0 24 24" overflow="visible" xml:space="preserve">
<path id="Rectangle_76" fill="#FFADF8" d="M3.2,0h17.7C22.6,0,24,1.4,24,3.2v17.7c0,1.7-1.4,3.2-3.2,3.2H3.2C1.4,24,0,22.6,0,20.8
	V3.2C0,1.4,1.4,0,3.2,0z"/>
<path fill="#321466" d="M16.1,6.7c1.6,1,2.7,2.3,3.5,3.9c0.8,1.5,1,3.1,0.9,4.9h-17c-0.1-1.6,0.2-3.1,0.8-4.6C5,9.2,6.1,7.7,7.8,6.7
	C7.9,7.5,8,8.2,8.1,8.8c0.1,1.1,0.3,2.2,0.3,3.3c0.1,0.4,0.4,0.7,0.8,0.7c0.4,0,0.7-0.3,0.7-0.8c-0.1-0.8-0.2-1.4-0.3-2.2
	C9.4,8.4,9.3,7.1,9.1,5.6c0-0.4,0.3-0.8,0.8-0.8h4.2c0.4,0,0.8,0.3,0.8,0.8c-0.2,1.3-0.3,2.7-0.4,4.1c-0.1,0.7-0.2,1.4-0.3,2.1
	c-0.1,0.4,0.3,0.8,0.7,0.8c0.4,0,0.8-0.3,0.8-0.8C15.7,10.3,15.9,8.5,16.1,6.7z M12,19H3.1c-0.7,0-1.2-0.4-1.1-1.1c0-0.5,0.4-1,1-1
	h17.8c0.7,0,1.1,0.4,1.2,1c0,0.6-0.4,1.1-1.1,1.2h-3C15.9,19,13.9,19,12,19z"/>
</svg>
