<?xml version="1.0" encoding="utf-8"?>
<!-- Generator: Adobe Illustrator 26.2.1, SVG Export Plug-In . SVG Version: 6.00 Build 0)  -->
<svg version="1.1" id="Capa_1" xmlns="http://www.w3.org/2000/svg" xmlns:xlink="http://www.w3.org/1999/xlink" x="0px" y="0px"
	 viewBox="0 0 24 24" style="enable-background:new 0 0 24 24;" xml:space="preserve">
<style type="text/css">
	.st0{fill:url(#SVGID_1_);}
</style>
<g>
	<g>
		<linearGradient id="SVGID_1_" gradientUnits="userSpaceOnUse" x1="12" y1="0.5967" x2="12" y2="20.8041">
			<stop  offset="0" style="stop-color:#FFFFFF"/>
			<stop  offset="1" style="stop-color:#808080"/>
		</linearGradient>
		<path class="st0" d="M21.8,22.7l-0.9-0.9l-1.6-1.6c-0.7-0.7-0.9-1.4-0.9-2.3V9.5c0-1.6-0.2-3.1-0.6-4.5c-0.6-1.6-1.1-2.7-1.8-3.6
			c-0.8-0.9-1.7-1.4-2.8-1.3H6.8C6,0,5.4,0.2,4.8,0.7C4,1.3,3.5,2.1,3,3.3C2.5,4.7,2.1,6.2,2,8c-0.2,2.4,0,4.7,0.6,6.7
			c0.5,1.5,0.9,2.6,1.7,3.5s1.7,1.4,2.8,1.3h3.1v1.3c0,1.9,1.5,3.3,3.3,3.3h7.7c0.2,0,0.6,0,0.8-0.5C22.2,23.1,21.9,22.9,21.8,22.7z
			 M10.2,18.1h-1c0.5-0.5,0.8-1,1-1.6V18.1z M9.2,15.6c-0.2,0.5-0.5,0.8-0.7,1.1l-0.2,0.3l-0.3,0.3c-0.5,0.5-0.8,0.7-1.3,0.6
			c-0.5,0-0.9-0.2-1.3-0.7c-0.6-0.6-1-1.4-1.4-2.4c-0.7-1.9-0.9-4-0.8-6.3C3.4,7,3.6,5.4,4.2,4c0.3-0.8,0.7-1.5,1.1-1.9l0.6-0.6
			c0.2-0.2,0.6-0.2,0.8-0.2c0.2,0,0.6,0.1,0.8,0.2c0.5,0.3,0.8,0.7,1.1,1.4c0.6,1.1,1,2.4,1.3,3.9C10,7.4,10,8.2,10.1,8.7l0.1,0.6
			C10.2,12.1,9.8,13.9,9.2,15.6z M13.5,22.7c-1.1,0-1.9-0.8-1.9-1.9V10c0-2.3-0.3-4.2-0.9-5.9c-0.3-1-0.8-1.9-1.5-2.6h4.1
			c0.6-0.2,1.1,0,1.6,0.5c0.6,0.7,0.9,1.4,1.4,2.5c0.6,1.5,0.8,3.2,0.8,5V18c0,1.3,0.5,2.4,1.4,3.3l1.3,1.3l0.2,0.2H13.5z M7.8,5.2
			c-0.7-0.6-1.5-0.6-2.2,0C5.4,5.5,5.1,5.8,5,6C4.3,7.2,4.2,8.5,4.2,9.6c0,1.1,0.1,1.9,0.3,2.7c0.2,0.6,0.5,1.3,1,1.7
			c0.3,0.3,0.7,0.5,1.1,0.5c0.3,0,0.8-0.1,1.1-0.5c0.2-0.2,0.6-0.7,0.8-1.1c0.8-1.9,0.9-4,0.2-6.1C8.6,6.2,8.3,5.7,7.8,5.2z
			 M7.3,12.4C7.2,12.6,7.1,12.7,7,13c-0.1,0.1-0.2,0.2-0.3,0.2c-0.1,0-0.2-0.1-0.3-0.2c-0.2-0.2-0.3-0.5-0.5-0.7
			c-0.6-1.7-0.6-3.4,0-5.1C6,7,6.1,6.7,6.3,6.5c0.1-0.1,0.2-0.2,0.3-0.2c0.1,0,0.2,0.1,0.3,0.2c0.2,0.2,0.3,0.6,0.6,0.9
			c0.2,0.7,0.3,1.4,0.3,2.4C7.9,10.5,7.8,11.5,7.3,12.4z"/>
	</g>
</g>
</svg>
