<?xml version="1.0" encoding="utf-8"?>
<!-- Generator: Adobe Illustrator 26.2.1, SVG Export Plug-In . SVG Version: 6.00 Build 0)  -->
<svg version="1.1" id="Capa_1" xmlns="http://www.w3.org/2000/svg" xmlns:xlink="http://www.w3.org/1999/xlink" x="0px" y="0px"
	 viewBox="0 0 24 24" style="enable-background:new 0 0 24 24;" xml:space="preserve">
<style type="text/css">
	.st0{fill:url(#SVGID_1_);}
</style>
<linearGradient id="SVGID_1_" gradientUnits="userSpaceOnUse" x1="12" y1="2.5166" x2="12" y2="24.4408">
	<stop  offset="0" style="stop-color:#FFFFFF"/>
	<stop  offset="1" style="stop-color:#808080"/>
</linearGradient>
<path class="st0" d="M11.9,22.8c-1.8,0-3.6-0.4-5.2-1.1l-5.3,1.1c-0.4,0.1-0.9-0.1-1.1-0.4C0,22-0.1,21.6,0.1,21.2l1.5-3.9
	C0.5,15.7,0,13.9,0,12C0,6,5.4,1.2,12,1.2S24,6,24,12C24,18,18.6,22.8,11.9,22.8z M6.9,19.3c0.2,0,0.4,0,0.5,0.1
	c1.4,0.7,3,1.1,4.6,1c5.3,0,9.6-3.8,9.6-8.4S17.3,3.6,12,3.6S2.4,7.4,2.4,12c0,1.6,0.5,3.1,1.5,4.4c0.2,0.3,0.3,0.7,0.1,1.1L3.1,20
	l3.6-0.7C6.7,19.3,6.8,19.3,6.9,19.3z M16.8,13.2c-0.7,0-1.2-0.5-1.2-1.2c0-0.7,0.5-1.2,1.2-1.2h0c0.7,0,1.2,0.5,1.2,1.2
	C18,12.7,17.5,13.2,16.8,13.2z M12,13.2c-0.7,0-1.2-0.5-1.2-1.2c0-0.7,0.5-1.2,1.2-1.2h0c0.7,0,1.2,0.5,1.2,1.2
	C13.2,12.7,12.7,13.2,12,13.2z M7.2,13.2C6.5,13.2,6,12.7,6,12c0-0.7,0.5-1.2,1.2-1.2h0c0.7,0,1.2,0.5,1.2,1.2
	C8.4,12.7,7.9,13.2,7.2,13.2z"/>
</svg>
