<?xml version="1.0" encoding="utf-8"?>
<!-- Generator: Adobe Illustrator 26.2.1, SVG Export Plug-In . SVG Version: 6.00 Build 0)  -->
<svg version="1.1" id="Capa_1" xmlns="http://www.w3.org/2000/svg" xmlns:xlink="http://www.w3.org/1999/xlink" x="0px" y="0px"
	 viewBox="0 0 24 24" style="enable-background:new 0 0 24 24;" xml:space="preserve">
<style type="text/css">
	.st0{fill:#FFADF8;}
	.st1{fill:none;}
	.st2{fill:#321466;}
</style>
<path id="Rectangle_76" class="st0" d="M3.2,0h17.7C22.6,0,24,1.4,24,3.2v17.7c0,1.7-1.4,3.2-3.2,3.2H3.2C1.4,24,0,22.6,0,20.8V3.2
	C0,1.4,1.4,0,3.2,0z"/>
<path id="Vector-2" class="st1" d="M20,20H4V4h16V20z"/>
<g>
	<g>
		<path class="st2" d="M20.8,2H3.2C2.9,2,2.6,2.2,2.3,2.3C2.2,2.6,2,2.9,2,3.2v17.5C2,21.4,2.6,22,3.2,22h17.5
			c0.3,0,0.7-0.2,0.9-0.3c0.2-0.2,0.3-0.5,0.3-0.9V3.2C22,2.6,21.4,2,20.8,2z M20.8,20.8H3.2c-0.1,0-0.1-0.1-0.1-0.1V3.2v0
			c0,0,0,0,0,0h17.5c0.1,0,0.1,0.1,0.1,0.1V20.8z"/>
	</g>
</g>
<path class="st2" d="M15.4,4.3c-1.1-0.6-2.4-0.7-4.2-0.6C9.5,3.9,8.1,4.6,7,6C6.8,6.2,6.6,6.4,6.5,6.6C6.3,6.9,6.2,7.1,6.2,7.4
	c-0.1,0.2,0,0.4,0.1,0.5C6.4,8,6.5,8.2,6.7,8.3c-0.2,0.7-0.2,1.4-0.2,2c-0.7,0.4-1.3,1.2-1.7,2.4v0.1c-0.2,1.9,0,2.9,0.7,3.6
	c0.7,0.7,1.8,0.8,3.5,0.5h0.2l0.1-0.2c0.1-0.1,0.1-0.2,0.1-0.2c0.2,0,0.2,0,0.4-0.1c0,0,0.1,0,0.1,0.1c0.2,0.1,0.2,0.2,0.3,0.3
	c0.1,0.2,0.2,0.2,0.3,0.3c0.4,0.6,0.4,1.1,0.5,1.6c0,0.3,0,0.7,0.2,1.1c0,0.1,0,0.2,0.1,0.2c0.1,0.2,0.2,0.3,0.5,0.3h0.2
	c0.2-0.1,4.6-4.1,4.6-4.1c0.2-0.1,0.2-0.3,0.2-0.5l-0.3-1.4v-0.1c0-0.3-0.1-0.5-0.1-0.7v-0.1c0.2-0.6,0.6-1.6,0.8-2.7
	c0.2-1.3,0.3-2.3,0.3-2.9V7.9C17.3,6.2,16.6,4.9,15.4,4.3z M12,18.9v-0.2c-0.1-0.8-0.1-1.7-1.1-2.8l4.6-1l0.2,0.8L12,18.9z M16,10.7
	c-0.2,1-0.6,2-0.8,2.7v0.1l-5.4,1.2c0-0.6-0.1-1.2-0.3-1.8l1.8-1l0.7,1c0.2,0.4,0.6,0.5,0.7,0.5c0.2,0,0.4-0.1,0.7-0.3
	c0.3-0.2,0.4-0.7,0.4-1.1v-0.5l0.2-0.2c0.2-0.3,0.2-0.7,0.2-1l2.1-1.1C16.2,9.7,16.2,10.1,16,10.7z M11.9,11.9l0.5-0.2v-0.9l0.1-0.5
	l0.4-0.1c0.2-0.1,0.4,0,0.6,0.1c0.1,0.2,0.1,0.4-0.1,0.7c-0.2,0.2-0.2,0.6-0.2,1c0,0.2,0,0.5-0.1,0.6c-0.1,0.1-0.2,0.1-0.2,0
	L11.9,11.9z M13.6,9.2c-0.4-0.2-0.9-0.1-1.3,0.2l-0.8,0.9l-2.7,1.5c-0.2-0.1-0.2-0.2-0.4-0.2C8,11.4,7.8,11.2,7.5,11V9.4
	c0-0.2,0.1-0.5,0.2-0.7c0.2,0,0.5,0.1,0.7,0.1h0.3c0.2,0,0.2,0,0.3-0.1c0.2-0.1,0.5-0.2,1.1-0.1c0.5,0.1,1,0.3,1.7,0.6
	c0.2,0.1,0.2,0.1,0.4,0c0.2-0.1,0.2-0.2,0.2-0.2c0.1-0.2,0-0.6-0.2-0.7c-0.8-0.3-1.4-0.6-2-0.7c-0.6-0.2-1.1-0.2-1.6,0H8.4
	C7.9,7.6,7.5,7.6,7.3,7.5c0.1-0.1,0.1-0.2,0.2-0.3c0.1-0.2,0.2-0.4,0.4-0.6c0.8-1.1,2-1.8,3.3-1.9c1.6-0.2,2.8,0,3.7,0.5
	c0.9,0.5,1.4,1.3,1.5,2.4L13.6,9.2z"/>
</svg>
