<?xml version="1.0" encoding="utf-8"?>
<!-- Generator: Adobe Illustrator 26.2.1, SVG Export Plug-In . SVG Version: 6.00 Build 0)  -->
<svg version="1.1" id="Capa_1" xmlns="http://www.w3.org/2000/svg" xmlns:xlink="http://www.w3.org/1999/xlink" x="0px" y="0px"
	 viewBox="0 0 24 24" style="enable-background:new 0 0 24 24;" xml:space="preserve">
<style type="text/css">
	.st0{fill:url(#SVGID_1_);}
</style>
<linearGradient id="SVGID_1_" gradientUnits="userSpaceOnUse" x1="12" y1="0.9692" x2="12" y2="22.0354">
	<stop  offset="0" style="stop-color:#FFFFFF"/>
	<stop  offset="1" style="stop-color:#808080"/>
</linearGradient>
<path class="st0" d="M18,0.9c-1.5-0.8-3.5-1-6.1-0.8C9.6,0.3,7.7,1.4,6.2,3.4C5.8,3.6,5.6,3.9,5.3,4.3C5.1,4.6,5,5,4.9,5.3
	C4.8,5.6,4.9,5.9,5,6c0.2,0.2,0.4,0.5,0.7,0.6c-0.3,0.9-0.3,2-0.2,2.9c-0.9,0.6-1.9,1.7-2.4,3.4V13c-0.2,2.7,0,4.2,1,5.1
	c0.9,0.9,2.6,1.2,5,0.7h0.2l0.1-0.2c0.1-0.1,0.1-0.2,0.1-0.3c0.2,0,0.3,0,0.6-0.1c0,0,0.1,0,0.1,0.1c0.2,0.1,0.4,0.3,0.5,0.5
	c0.1,0.2,0.2,0.4,0.5,0.5c0.6,0.8,0.6,1.5,0.7,2.3c0,0.5,0,1,0.2,1.6c0,0.1,0,0.2,0.1,0.3c0.1,0.3,0.3,0.5,0.7,0.5h0.2
	c0.2-0.1,6.6-5.8,6.6-5.8c0.2-0.1,0.2-0.5,0.2-0.7l-0.5-2v-0.1c0-0.5-0.1-0.7-0.1-0.9v-0.1c0.2-0.8,0.8-2.3,1.2-3.8
	c0.3-1.9,0.5-3.3,0.5-4.2V6C20.8,3.6,19.8,1.8,18,0.9z M13.3,21.9v-0.2c-0.1-1.2-0.1-2.4-1.6-4l6.5-1.4l0.2,1.2L13.3,21.9z M19,10.1
	c-0.4,1.4-0.8,2.9-1.2,3.8v0.1l-7.7,1.7c0-0.8-0.1-1.7-0.5-2.6l2.6-1.4l1,1.4c0.3,0.6,0.8,0.7,1,0.7c0.2,0,0.6-0.1,0.9-0.5
	c0.5-0.3,0.6-1,0.6-1.5v-0.7l0.2-0.2c0.2-0.5,0.3-0.9,0.3-1.4l3-1.6C19.3,8.6,19.2,9.3,19,10.1z M13.1,11.8l0.7-0.3v-1.3L14,9.4
	l0.6-0.1c0.4-0.1,0.6,0,0.8,0.1c0.1,0.2,0.1,0.6-0.1,1c-0.3,0.3-0.3,0.8-0.3,1.4c0,0.2,0,0.7-0.1,0.8c-0.1,0.1-0.2,0.1-0.3,0
	L13.1,11.8z M15.5,7.9c-0.6-0.2-1.3-0.1-1.9,0.3l-1.2,1.3l-3.8,2.1c-0.2-0.1-0.3-0.2-0.6-0.3c-0.5-0.2-0.8-0.5-1.2-0.7V8.3
	c0-0.3,0.1-0.7,0.2-0.9c0.3,0,0.7,0.1,1,0.1h0.5c0.2,0,0.3,0,0.5-0.1C9.3,7.2,9.8,7,10.7,7.2c0.7,0.1,1.4,0.5,2.4,0.8
	c0.2,0.1,0.3,0.1,0.6,0c0.2-0.1,0.3-0.2,0.3-0.4c0.1-0.3,0-0.8-0.3-0.9c-1.2-0.5-2-0.8-2.8-0.9c-0.8-0.3-1.6-0.2-2.3,0H8.1
	C7.3,5.7,6.9,5.7,6.5,5.5C6.6,5.3,6.6,5.2,6.7,5c0.1-0.3,0.3-0.6,0.6-0.8c1.2-1.6,2.9-2.6,4.8-2.7c2.3-0.2,4.1,0,5.2,0.7
	c1.3,0.7,2,1.9,2.2,3.5L15.5,7.9z"/>
</svg>
