<?xml version="1.0" encoding="utf-8"?>
<!-- Generator: Adobe Illustrator 26.2.1, SVG Export Plug-In . SVG Version: 6.00 Build 0)  -->
<svg version="1.1" baseProfile="tiny" id="Capa_1" xmlns="http://www.w3.org/2000/svg" xmlns:xlink="http://www.w3.org/1999/xlink"
	 x="0px" y="0px" viewBox="0 0 24 24" overflow="visible" xml:space="preserve">
<path id="Rectangle_76" fill="#FFADF8" d="M3.2,0h17.7C22.6,0,24,1.4,24,3.2v17.7c0,1.7-1.4,3.2-3.2,3.2H3.2C1.4,24,0,22.6,0,20.8
	V3.2C0,1.4,1.4,0,3.2,0z"/>
<g>
	<path fill="#321466" d="M18.6,2H13c-0.3,0-0.5,0.2-0.5,0.5v0.4C12,3,11.8,3.2,11.5,3.5h-0.1c-0.2,0-0.2,0-0.4,0.1
		c-0.2,0-0.5,0.1-0.7,0.1C7.6,4.4,5.7,6.8,5.7,9.8V14c0,0.3-0.1,0.6-0.1,0.9c0,0.1-0.1,0.2-0.1,0.3c-0.5,0-0.6,0.1-0.6,0.7v5.5
		c0,0.4,0.2,0.6,0.6,0.6H8c0.4,0,0.6-0.2,0.6-0.6v-5.6c0-0.4-0.2-0.6-0.6-0.6H7.9c0-0.1,0-0.2-0.1-0.2c-0.1-0.2-0.1-0.6-0.1-0.8V9.9
		c0-0.4,0.1-0.8,0.2-1.2c0.5-1.7,2.1-2.9,3.7-3c0,0,0.2,0,0.2,0.1v1.1c-1.9,0.1-3,1.4-3,3.2v10.5c0,0.8,0.5,1.3,1.3,1.3h5.6
		c0.8,0,1.3-0.5,1.3-1.3V10c0-1-0.4-1.9-1.2-2.6c-0.5-0.4-1-0.7-1.7-0.7V5.6l0.2-0.5l0.1-0.2h0.2c0.3,0,0.6,0.1,0.9,0.2
		c0.7,0.1,1.3,0.3,2.1,0.7c0.1,0,0.2,0.1,0.4,0.1c0.1-0.1,0.2-0.2,0.2-0.4c0-0.2-0.1-0.3-0.2-0.4c-0.6-0.3-1.2-0.5-1.9-0.7l2.3-0.7
		C18.9,3.6,19,3.4,19,3.1c0.1-0.2,0.1-0.3,0.1-0.6C19.1,2.2,18.9,2,18.6,2z M6.4,14.8h0.4C6.9,14.9,6.9,15,7,15.2H6.3L6.4,14.8z
		 M7.6,21.1H5.7v-5h1.9V21.1z M11.3,4.7c-0.2,0-0.2,0.1-0.4,0.1c-0.3,0.1-0.7,0.2-1,0.3c-2,0.9-3,2.4-3.1,4.5V14H6.5V9.9
		C6.5,7.1,8.3,5,11,4.5c0.1,0,0.2,0,0.3-0.1V4.7z M12.4,3.9c0.2-0.2,0.3-0.2,0.6-0.2s0.4,0.1,0.6,0.2c0.2,0.2,0.2,0.3,0.2,0.6
		c0,0.5-0.4,0.8-0.8,0.8c-0.2,0-0.4-0.1-0.6-0.2c-0.2-0.2-0.2-0.3-0.2-0.6S12.2,4.1,12.4,3.9z M13.4,6.1v0.4h-0.8V6.1H13.4z
		 M16.3,10v10.5c0,0.4-0.2,0.6-0.6,0.6h-5.5c-0.4,0-0.6-0.2-0.6-0.6V10c0-1.3,0.8-2.3,2.1-2.6h2.1C15.3,7.5,16.3,8.6,16.3,10z
		 M18.2,2.9l-3.7,1c0-0.1-0.1-0.1-0.1-0.2c-0.1-0.2-0.2-0.3-0.4-0.5c-0.2-0.2-0.3-0.2-0.5-0.3c0,0-0.1,0-0.2-0.1L18.2,2.9L18.2,2.9z
		 M10,11.7v5c0,0.5,0.1,0.6,0.5,0.6h4.8c0.4,0,0.6-0.2,0.6-0.6v-5c0-0.4-0.2-0.6-0.6-0.6h-4.7C10.2,11.1,10,11.3,10,11.7z M10.9,12
		H15v4.4h-4.1V12z"/>
</g>
</svg>
