<?xml version="1.0" encoding="utf-8"?>
<!-- Generator: Adobe Illustrator 26.2.1, SVG Export Plug-In . SVG Version: 6.00 Build 0)  -->
<svg version="1.1" id="Capa_1" xmlns="http://www.w3.org/2000/svg" xmlns:xlink="http://www.w3.org/1999/xlink" x="0px" y="0px"
	 viewBox="0 0 24 24" style="enable-background:new 0 0 24 24;" xml:space="preserve">
<style type="text/css">
	.st0{fill:url(#SVGID_1_);}
</style>
<g>
	<g>
		<linearGradient id="SVGID_1_" gradientUnits="userSpaceOnUse" x1="11.8374" y1="0.4085" x2="12.1619" y2="23.4488">
			<stop  offset="0" style="stop-color:#FFFFFF"/>
			<stop  offset="1" style="stop-color:#808080"/>
		</linearGradient>
		<path class="st0" d="M19.9,0h-6.8c-0.4,0-0.6,0.2-0.6,0.6v0.5c-0.5,0.1-0.8,0.4-1.1,0.7h-0.1c-0.2,0-0.3,0-0.5,0.1
			C10.6,1.9,10.3,2,10,2C6.7,2.9,4.4,5.8,4.4,9.4v5.1c0,0.4-0.1,0.7-0.1,1.1c0,0.1-0.1,0.3-0.1,0.4c-0.6,0-0.7,0.1-0.7,0.8v6.6
			c0,0.5,0.2,0.7,0.7,0.7h3c0.5,0,0.7-0.2,0.7-0.7v-6.7c0-0.5-0.2-0.7-0.7-0.7H7.1c0-0.1,0-0.2-0.1-0.3c-0.1-0.3-0.1-0.7-0.1-1V9.5
			C6.9,9,7,8.5,7.1,8c0.6-2,2.5-3.5,4.5-3.6c0,0,0.2,0,0.2,0.1v1.3C9.5,5.9,8.2,7.5,8.2,9.7v12.6c0,1,0.6,1.6,1.6,1.6h6.8
			c1,0,1.6-0.6,1.6-1.6V9.6c0-1.2-0.5-2.3-1.4-3.1c-0.6-0.5-1.2-0.8-2.1-0.9V4.3l0.3-0.6L15,3.5h0.3c0.4,0,0.7,0.1,1.1,0.2
			c0.8,0.1,1.6,0.4,2.5,0.8c0.1,0,0.3,0.1,0.5,0.1c0.1-0.1,0.3-0.3,0.3-0.5c0-0.2-0.1-0.4-0.3-0.5c-0.7-0.4-1.5-0.6-2.3-0.8L19.9,2
			c0.4-0.1,0.5-0.3,0.5-0.7c0.1-0.2,0.1-0.4,0.1-0.7C20.5,0.2,20.3,0,19.9,0z M5.3,15.3h0.5c0.1,0.1,0.1,0.3,0.2,0.5H5.2L5.3,15.3z
			 M6.7,22.9H4.4v-6h2.3V22.9z M11.2,3.2c-0.2,0-0.3,0.1-0.5,0.1c-0.4,0.1-0.9,0.2-1.2,0.4C7.1,4.8,5.9,6.6,5.8,9.1v5.3H5.4V9.5
			c0-3.3,2.2-5.9,5.4-6.5c0.1,0,0.2,0,0.4-0.1V3.2z M12.4,2.3C12.6,2.1,12.8,2,13.1,2c0.3,0,0.5,0.1,0.7,0.3C14,2.5,14.1,2.7,14.1,3
			c0,0.6-0.5,1-1,1c-0.3,0-0.5-0.1-0.7-0.3c-0.2-0.2-0.3-0.4-0.3-0.7S12.2,2.5,12.4,2.3z M13.6,5v0.5h-1V5H13.6z M17.1,9.7v12.6
			c0,0.5-0.2,0.7-0.7,0.7H9.9c-0.5,0-0.7-0.2-0.7-0.7V9.7c0-1.6,1-2.8,2.5-3.1h2.5C15.9,6.6,17.1,7.9,17.1,9.7z M19.4,1.1L15,2.3
			c0-0.1-0.1-0.1-0.1-0.2c-0.1-0.2-0.3-0.4-0.5-0.6S14,1.2,13.8,1.1c0,0-0.1,0-0.2-0.1L19.4,1.1L19.4,1.1z M9.7,11.7v6
			c0,0.6,0.1,0.7,0.6,0.7H16c0.5,0,0.7-0.2,0.7-0.7v-6c0-0.5-0.2-0.7-0.7-0.7h-5.7C9.9,11,9.7,11.2,9.7,11.7z M10.7,12h5v5.3h-5V12z
			"/>
	</g>
</g>
</svg>
