<?xml version="1.0" encoding="utf-8"?>
<!-- Generator: Adobe Illustrator 26.2.1, SVG Export Plug-In . SVG Version: 6.00 Build 0)  -->
<svg version="1.1" id="Capa_1" xmlns="http://www.w3.org/2000/svg" xmlns:xlink="http://www.w3.org/1999/xlink" x="0px" y="0px"
	 viewBox="0 0 24 24" style="enable-background:new 0 0 24 24;" xml:space="preserve">
<style type="text/css">
	.st0{fill:#FFADF8;}
	.st1{fill:#321466;}
</style>
<path id="Rectangle_76" class="st0" d="M3.2,0h17.7C22.6,0,24,1.4,24,3.2v17.7c0,1.7-1.4,3.2-3.2,3.2H3.2C1.4,24,0,22.6,0,20.8V3.2
	C0,1.4,1.4,0,3.2,0z"/>
<path class="st1" d="M18.7,22H5.3C3.5,22,2,20.5,2,18.7V5.3C2,3.5,3.5,2,5.3,2h13.3C20.5,2,22,3.5,22,5.3v13.3
	C22,20.5,20.5,22,18.7,22z M4.2,16.9v1.8c0,0.6,0.5,1.1,1.1,1.1h13.3c0.6,0,1.1-0.5,1.1-1.1v-4l-1.4-1.4c-0.4-0.4-1.1-0.4-1.6,0
	l-1,1l1.4,1.4c0.4,0.4,0.4,1.1,0,1.6c-0.4,0.4-1.1,0.4-1.6,0L13.4,15c0,0,0,0,0,0l-2.9-2.9c-0.4-0.4-1.1-0.4-1.6,0L4.2,16.9z
	 M5.3,4.2c-0.6,0-1.1,0.5-1.1,1.1v8.4l3.2-3.2c1.3-1.3,3.4-1.3,4.7,0l2.1,2.1l1-1c1.3-1.3,3.3-1.3,4.6-0.1V5.3
	c0-0.6-0.5-1.1-1.1-1.1H5.3z M14.2,8.7c-0.6,0-1.1-0.5-1.1-1.1c0-0.6,0.5-1.1,1.1-1.1h0c0.6,0,1.1,0.5,1.1,1.1
	C15.3,8.2,14.8,8.7,14.2,8.7z"/>
</svg>
