<?xml version="1.0" encoding="utf-8"?>
<!-- Generator: Adobe Illustrator 26.2.1, SVG Export Plug-In . SVG Version: 6.00 Build 0)  -->
<svg version="1.1" id="Capa_1" xmlns="http://www.w3.org/2000/svg" xmlns:xlink="http://www.w3.org/1999/xlink" x="0px" y="0px"
	 viewBox="0 0 24 24" style="enable-background:new 0 0 24 24;" xml:space="preserve">
<style type="text/css">
	.st0{fill:url(#SVGID_1_);}
</style>
<linearGradient id="SVGID_1_" gradientUnits="userSpaceOnUse" x1="12" y1="0.7026" x2="12" y2="24.1968">
	<stop  offset="0" style="stop-color:#FFFFFF"/>
	<stop  offset="1" style="stop-color:#808080"/>
</linearGradient>
<path class="st0" d="M20,24H4c-2.2,0-4-1.8-4-4V4c0-2.2,1.8-4,4-4h16c2.2,0,4,1.8,4,4v16C24,22.2,22.2,24,20,24z M2.7,17.9V20
	c0,0.7,0.6,1.3,1.3,1.3h16c0.7,0,1.3-0.6,1.3-1.3v-4.8l-1.7-1.7c-0.5-0.5-1.4-0.5-1.9,0l-1.2,1.2l1.7,1.7c0.5,0.5,0.5,1.4,0,1.9
	c-0.5,0.5-1.4,0.5-1.9,0l-2.7-2.7c0,0,0,0,0,0l-3.4-3.4c-0.5-0.5-1.4-0.5-1.9,0L2.7,17.9z M4,2.7C3.3,2.7,2.7,3.3,2.7,4v10.1
	l3.8-3.8c1.6-1.6,4.1-1.6,5.7,0l2.5,2.5l1.2-1.2c1.5-1.5,3.9-1.6,5.5-0.2V4c0-0.7-0.6-1.3-1.3-1.3H4z M14.7,8
	c-0.7,0-1.3-0.6-1.3-1.3s0.6-1.3,1.3-1.3h0c0.7,0,1.3,0.6,1.3,1.3S15.4,8,14.7,8z"/>
</svg>
