<?xml version="1.0" encoding="utf-8"?>
<!-- Generator: Adobe Illustrator 26.2.1, SVG Export Plug-In . SVG Version: 6.00 Build 0)  -->
<svg version="1.0" id="Capa_1" xmlns="http://www.w3.org/2000/svg" xmlns:xlink="http://www.w3.org/1999/xlink" x="0px" y="0px"
	 viewBox="0 0 24 24" enable-background="new 0 0 24 24" xml:space="preserve">
<g>
	<linearGradient id="SVGID_1_" gradientUnits="userSpaceOnUse" x1="11.8537" y1="0.5929" x2="12.2771" y2="25.9953">
		<stop  offset="0" style="stop-color:#FFFFFF"/>
		<stop  offset="1" style="stop-color:#000000"/>
	</linearGradient>
	<path fill="url(#SVGID_1_)" d="M16.1,17.5V7.1c-0.1-0.6-1-1.2-1.7-1c-0.6,0.2-1,0.6-1,1.3v4.2H13V5.2c-0.1-0.7-1.2-1.3-2-1
		c-0.5,0.4-0.7,0.6-0.7,1.2v6.2H9.7c0-0.1,0-0.2-0.2-0.4V3.4c0-0.8-1-1.2-1.8-0.8C7.2,2.9,7.1,3.1,7.1,3.7v8H6.6V5.2
		C6.5,4.4,5.5,4.1,4.8,4.3C4.3,4.6,4.1,4.9,4.1,5.5v7.1l-0.5-0.5c-0.5-0.4-0.8-0.7-1.3-1.2c-0.4-0.4-0.8-0.5-1.4-0.4
		c-0.4,0.2-0.7,0.6-0.8,1.2c-0.1,0.5,0.1,0.8,0.4,1.2l3.5,5.7C4,18.8,4,18.9,4,19c-0.1,1.4-0.4,3-0.4,4.4c0,0.4,0,0.4,0.5,0.4h12.3
		c0.2,0.1,0.4,0,0.4-0.2c-0.1-0.7-0.1-1.4-0.2-2.3C16.2,20.1,16.1,18.8,16.1,17.5z M17.1,6.5c0.6-1.6,1.3-3.1,1.9-4.7
		c0.1-0.2,0.1-0.5,0.1-0.6c-0.1-0.5-0.5-0.7-1.1-1c-0.2,0-0.4,0-0.5-0.1c-0.5,0.2-0.8,0.5-1.1,0.8c-0.5,1.4-1.2,2.8-1.7,4.1
		c-0.1,0.2,0,0.4,0.2,0.4c0.7,0.1,1.2,0.5,1.4,1l0.2,0.1L17,6.7C17,6.6,17.1,6.6,17.1,6.5z M23.5,5.8c-0.7-0.5-1.8-0.2-2.2,0.6
		c-0.5,1.2-1.1,2.4-1.6,3.7c0,0.1-0.1,0.2-0.1,0.4c-0.1,0-0.4-0.1-0.5-0.1c0.1-0.4,0.2-0.6,0.2-1c0.6-1.6,1.3-3.4,2-4.9
		c0.2-0.5,0.2-0.8-0.1-1.2S20.6,2.8,20,2.8c-0.5,0-0.8,0.4-1.1,0.7c-0.6,1.6-1.4,3.4-2,4.9c-0.1,0.2-0.1,0.4-0.1,0.5v2.5
		c0.1,3-0.1,5.9,0.2,8.9c0.1,0.7,0.1,1.4,0.2,2.2c0,0.1,0.1,0.1,0.1,0.2c0.1,0,0.2,0,0.2-0.1c0.1-0.1,0.2-0.4,0.2-0.5
		c0.5-1.4,1-2.9,1.4-4.3c1.1-2.6,2.3-5.3,3.4-7.8c0.5-1.1,0.8-2,1.3-3C24.1,6.6,23.8,6.1,23.5,5.8z M12.4,3.5
		c0.7,0.4,1.1,0.8,1.2,1.4c0.1,0.2,0.1,0.5,0.2,0.7c0,0.1,0,0.1,0.1,0.2c0.1,0,0.2-0.1,0.2-0.1l0,0c0.5-1.1,0.8-2,1.3-3.1
		c0-0.2,0.1-0.4,0.1-0.5c-0.1-0.5-0.5-1-1.1-1.2c-0.6-0.1-1.3,0.1-1.4,0.6c-0.4,0.5-0.5,1.2-0.7,1.7C12.2,3.2,12.2,3.5,12.4,3.5z"/>
</g>
</svg>
