<?xml version="1.0" encoding="utf-8"?>
<!-- Generator: Adobe Illustrator 26.2.1, SVG Export Plug-In . SVG Version: 6.00 Build 0)  -->
<svg version="1.1" baseProfile="tiny" id="Capa_1" xmlns="http://www.w3.org/2000/svg" xmlns:xlink="http://www.w3.org/1999/xlink"
	 x="0px" y="0px" viewBox="0 0 24 24" overflow="visible" xml:space="preserve">
<path id="Rectangle_76" fill="#FFADF8" d="M3.2,0h17.7C22.6,0,24,1.4,24,3.2v17.7c0,1.7-1.4,3.2-3.2,3.2H3.2C1.4,24,0,22.6,0,20.8
	V3.2C0,1.4,1.4,0,3.2,0z"/>
<g>
	<path fill="#321466" d="M15.4,16.6V7.9c-0.1-0.5-0.8-1-1.4-0.8c-0.5,0.2-0.8,0.5-0.8,1.1v3.5h-0.4V6.3c-0.1-0.6-1-1.1-1.7-0.8
		c-0.4,0.3-0.6,0.5-0.6,1v5.2h-0.4c0-0.1,0-0.2-0.2-0.3V4.8C9.9,4.1,9.1,3.8,8.4,4.1c-0.4,0.3-0.5,0.5-0.5,1v6.7H7.5V6.3
		C7.4,5.7,6.6,5.4,6,5.6c-0.4,0.2-0.6,0.5-0.6,1v5.9L5,12.1c-0.4-0.3-0.7-0.6-1.1-1c-0.3-0.3-0.7-0.4-1.2-0.3
		C2.4,11,2.1,11.3,2,11.8c-0.1,0.4,0.1,0.7,0.3,1l2.9,4.8c0.1,0.1,0.1,0.2,0.1,0.3C5.2,19.1,5,20.4,5,21.6c0,0.3,0,0.3,0.4,0.3h10.3
		c0.2,0.1,0.3,0,0.3-0.2c-0.1-0.6-0.1-1.2-0.2-1.9C15.5,18.8,15.4,17.7,15.4,16.6z M16.3,7.4c0.5-1.3,1.1-2.6,1.6-3.9
		C18,3.3,18,3.1,18,3c-0.1-0.4-0.4-0.6-0.9-0.8c-0.2,0-0.3,0-0.4-0.1c-0.4,0.2-0.7,0.4-0.9,0.7c-0.4,1.2-1,2.3-1.4,3.4
		c-0.1,0.2,0,0.3,0.2,0.3c0.6,0.1,1,0.4,1.2,0.8L16,7.4l0.2,0.2C16.2,7.5,16.3,7.5,16.3,7.4z M21.6,6.8c-0.6-0.4-1.5-0.2-1.8,0.5
		c-0.4,1-0.9,2-1.3,3.1c0,0.1-0.1,0.2-0.1,0.3c-0.1,0-0.3-0.1-0.4-0.1c0.1-0.3,0.2-0.5,0.2-0.8c0.5-1.3,1.1-2.8,1.7-4.1
		c0.2-0.4,0.2-0.7-0.1-1s-0.6-0.4-1.1-0.4c-0.4,0-0.7,0.3-0.9,0.6c-0.5,1.3-1.2,2.8-1.7,4.1c-0.1,0.2-0.1,0.3-0.1,0.4v2.1
		c0.1,2.5-0.1,4.9,0.2,7.4c0.1,0.6,0.1,1.2,0.2,1.8c0,0.1,0.1,0.1,0.1,0.2c0.1,0,0.2,0,0.2-0.1c0.1-0.1,0.2-0.3,0.2-0.4
		c0.4-1.2,0.8-2.4,1.2-3.6c0.9-2.2,1.9-4.4,2.8-6.5c0.4-0.9,0.7-1.7,1.1-2.5C22.1,7.5,21.9,7.1,21.6,6.8z M12.3,4.9
		c0.6,0.3,0.9,0.7,1,1.2c0.1,0.2,0.1,0.4,0.2,0.6c0,0.1,0,0.1,0.1,0.2c0.1,0,0.2-0.1,0.2-0.1V6.8c0.4-0.9,0.7-1.7,1.1-2.6
		C14.9,4,15,3.9,15,3.8c-0.1-0.4-0.4-0.8-0.9-1c-0.5-0.1-1.1,0.1-1.2,0.5c-0.3,0.4-0.4,1-0.6,1.4C12.2,4.7,12.2,4.9,12.3,4.9z"/>
</g>
</svg>
