<?xml version="1.0" encoding="utf-8"?>
<!-- Generator: Adobe Illustrator 26.2.1, SVG Export Plug-In . SVG Version: 6.00 Build 0)  -->
<svg version="1.1" id="Capa_1" xmlns="http://www.w3.org/2000/svg" xmlns:xlink="http://www.w3.org/1999/xlink" x="0px" y="0px"
	 viewBox="0 0 24 24" style="enable-background:new 0 0 24 24;" xml:space="preserve">
<style type="text/css">
	.st0{fill:#FFADF8;}
	.st1{fill:#321466;}
</style>
<g>
	<path class="st0" d="M16.8,23.9c0,0-0.1,0-0.1,0c-4.7,0-9.4,0-14.1,0c-0.6,0-1.2-0.2-1.6-0.6C0.5,23,0.3,22.5,0.2,22
		c0-0.2-0.1-0.4-0.1-0.6c0-4.7,0-9.4,0-14.1c0-1.6,0-3.3,0-4.9c0-0.6,0.3-1.2,0.7-1.6c0.4-0.4,0.9-0.7,1.5-0.7c0.3,0,0.6,0,0.9,0
		c6,0,12.1,0,18.1,0c0.6,0,1.2,0.1,1.6,0.5c0.5,0.4,0.8,0.9,0.9,1.5c0.1,0.9,0,1.8,0.1,2.8c0,0.1,0,0.1,0,0.2c0,3.8,0,7.7,0,11.5
		c0,0.1,0,0.1,0,0.2c-1.6,0-3.1,0-4.7,0c-0.5,0-1,0.1-1.4,0.4c-0.6,0.4-1,1-1,1.8C16.7,20.6,16.8,22.2,16.8,23.9z M12,4.9
		c-2.7,0-5.4,0-8.1,0c-0.2,0-0.2,0-0.2,0.2c0,0.7,0,1.3,0,2c0,0.1,0,0.2,0.2,0.2c5.4,0,10.9,0,16.3,0c0.1,0,0.2,0,0.2-0.2
		c0-0.7,0-1.3,0-2c0-0.2,0-0.2-0.2-0.2C17.4,4.9,14.7,4.9,12,4.9z M12,12c2.7,0,5.4,0,8.1,0c0.1,0,0.2,0,0.2-0.2c0-0.7,0-1.3,0-2
		c0-0.2,0-0.2-0.2-0.2c-5.4,0-10.9,0-16.3,0c-0.1,0-0.2,0-0.2,0.2c0,0.7,0,1.3,0,2c0,0.2,0,0.2,0.2,0.2C6.6,12,9.3,12,12,12z
		 M9,16.8c1.7,0,3.4,0,5.1,0c0.2,0,0.2,0,0.2-0.2c0-0.7,0-1.3,0-2c0-0.1,0-0.2-0.2-0.2c-3.5,0-6.9,0-10.4,0c-0.1,0-0.2,0-0.2,0.2
		c0,0.7,0,1.3,0,2c0,0.2,0,0.2,0.2,0.2C5.6,16.8,7.3,16.8,9,16.8z"/>
	<path class="st1" d="M16.8,23.9c0-1.6,0-3.3,0-4.9c0-0.7,0.4-1.3,1-1.8c0.4-0.3,0.9-0.4,1.4-0.4c1.6,0,3.1,0,4.7,0
		c0,0-0.1,0.1-0.1,0.1C21.5,19.2,19.2,21.5,16.8,23.9C16.8,23.8,16.8,23.8,16.8,23.9z"/>
	<path class="st1" d="M12,4.9c2.7,0,5.4,0,8.1,0c0.2,0,0.2,0,0.2,0.2c0,0.7,0,1.3,0,2c0,0.1,0,0.2-0.2,0.2c-5.4,0-10.9,0-16.3,0
		c-0.1,0-0.2-0.1-0.2-0.2c0-0.7,0-1.3,0-2c0-0.2,0-0.2,0.2-0.2C6.6,4.9,9.3,4.9,12,4.9z"/>
	<path class="st1" d="M12,12c-2.7,0-5.4,0-8.1,0c-0.2,0-0.2,0-0.2-0.2c0-0.7,0-1.3,0-2c0-0.1,0-0.2,0.2-0.2c5.4,0,10.9,0,16.3,0
		c0.2,0,0.2,0,0.2,0.2c0,0.7,0,1.3,0,2c0,0.1,0,0.2-0.2,0.2C17.4,12,14.7,12,12,12z"/>
	<path class="st1" d="M9,16.8c-1.7,0-3.4,0-5.1,0c-0.2,0-0.2,0-0.2-0.2c0-0.7,0-1.3,0-2c0-0.1,0-0.2,0.2-0.2c3.5,0,6.9,0,10.4,0
		c0.1,0,0.2,0,0.2,0.2c0,0.7,0,1.3,0,2c0,0.2,0,0.2-0.2,0.2C12.5,16.8,10.7,16.8,9,16.8z"/>
</g>
</svg>
