<?xml version="1.0" encoding="utf-8"?>
<!-- Generator: Adobe Illustrator 26.2.1, SVG Export Plug-In . SVG Version: 6.00 Build 0)  -->
<svg version="1.1" baseProfile="tiny" id="Capa_1" xmlns="http://www.w3.org/2000/svg" xmlns:xlink="http://www.w3.org/1999/xlink"
	 x="0px" y="0px" viewBox="0 0 24 24" overflow="visible" xml:space="preserve">
<path id="Rectangle_76" fill="#FFADF8" d="M3.2,0h17.7C22.6,0,24,1.4,24,3.2v17.7c0,1.7-1.4,3.2-3.2,3.2H3.2C1.4,24,0,22.6,0,20.8
	V3.2C0,1.4,1.4,0,3.2,0z"/>
<g>
	<path fill="#321466" d="M21.3,15.8c-0.2-0.2-0.4-0.3-0.7-0.4c-0.9-0.4-1.8-0.8-2.6-1.2c-0.3-0.2-0.6-0.3-0.9-0.4
		c0.1,0.3,0.2,0.6,0.3,0.9c0.2,0.4,0.2,0.9-0.2,1.3c-0.3,0.4-0.7,0.7-1,0.9c-1,0.6-2.1,0.8-3.2,0.9c-1.4,0.1-2.8,0-4.2-0.5
		c-0.6-0.3-1.2-0.5-1.7-1c-0.4-0.4-0.5-0.9-0.3-1.5c0-0.2,0.1-0.4,0.2-0.6C7,14,7,13.9,7,13.8c-0.5,0.3-1.1,0.4-1.6,0.8
		c-0.7,0.3-1.5,0.7-2.1,1c-0.3,0.1-0.4,0.3-0.6,0.4c-0.3,0.3-0.3,0.6,0,0.9C2.8,17,2.9,17.1,3,17.2l0.8,0.5c1.6,1,3.2,2,4.8,2.9
		c0.7,0.4,1.5,0.8,2.2,1.1s1.6,0.3,2.5,0c0.4-0.2,0.9-0.3,1.2-0.5l2.6-1.5c1.1-0.7,2.3-1.4,3.5-2.1c0.3-0.2,0.6-0.4,0.9-0.8
		C21.7,16.5,21.7,16.1,21.3,15.8z M12,6.9c0.9,0,1.6-0.3,2.3-0.9c0.1-0.1,0.2-0.1,0.1-0.3c-0.3-0.9-0.6-2-0.9-2.9
		C13.4,2.3,13,2.1,12.6,2h-1.1c-0.5,0.1-0.9,0.4-1,1C10.1,4,9.9,4.9,9.6,5.8c0,0.2,0,0.2,0.1,0.3C10.4,6.6,11.2,6.9,12,6.9z
		 M8.5,13.5c0.9,0.4,1.8,0.6,2.7,0.7c1.3,0.1,2.5,0,3.7-0.5c0.5-0.2,0.9-0.3,1.2-0.8c0.3-0.3,0.3-0.6,0.3-0.9
		c-0.1-0.3-0.2-0.6-0.3-0.9c-0.3-0.7-0.5-1.5-0.8-2.2c-0.3,0.5-0.7,0.8-1.1,0.9c-1.4,0.5-2.8,0.5-4.2,0.1C9.5,9.7,9,9.4,8.8,8.9H8.7
		C8.6,9,8.6,9.2,8.4,9.2c-0.3,0.9-0.6,1.6-0.9,2.5c-0.3,0.6-0.1,1,0.3,1.5C8.1,13.3,8.2,13.5,8.5,13.5z"/>
</g>
</svg>
