<?xml version="1.0" encoding="utf-8"?>
<!-- Generator: Adobe Illustrator 26.2.1, SVG Export Plug-In . SVG Version: 6.00 Build 0)  -->
<svg version="1.0" id="Capa_1" xmlns="http://www.w3.org/2000/svg" xmlns:xlink="http://www.w3.org/1999/xlink" x="0px" y="0px"
	 viewBox="0 0 24 24" enable-background="new 0 0 24 24" xml:space="preserve">
<linearGradient id="SVGID_1_" gradientUnits="userSpaceOnUse" x1="10.8044" y1="-0.1811" x2="12.8623" y2="26.1766">
	<stop  offset="0" style="stop-color:#FFFFFF"/>
	<stop  offset="1" style="stop-color:#000000"/>
</linearGradient>
<path fill="url(#SVGID_1_)" d="M12.1,23c-1.6,0-3.1-0.5-4.4-1.2c-0.1,0-0.2-0.1-0.2-0.2c-1-2.2-1.9-4.1-2.8-6.2
	c-0.1-0.1-0.1-0.2,0-0.5c0.4-1.2,0.8-2.2,1.4-3.1c1-1.4,1.9-2.9,3.1-4c0.5-0.5,1.1-1,1.7-1.3c0.6-0.5,1.3-0.5,2,0
	c0.1,0.1,0.4,0.2,0.5,0.4c0.7,0.5,1.4,1.2,2.2,1.9c1.2,1.3,2.2,2.6,3.1,4.2c0.5,0.7,0.7,1.3,1,2.2v0.4c-0.6,1.4-1.3,3.1-2,4.6
	c-0.2,0.5-0.5,1.1-0.7,1.7c-0.1,0.1-0.1,0.2-0.4,0.4c-1.1,0.6-2.2,1-3.4,1.2C12.7,23,12.3,23,12.1,23z M12.1,20.6
	c1.9,0,3.5-1.6,3.5-3.5s-1.6-3.5-3.5-3.5s-3.5,1.6-3.5,3.5C8.5,18.9,10,20.6,12.1,20.6z M11.9,7.4h-0.2c-0.4,0.1-0.6,0.2-1,0.5
	c-0.7,0.5-1.3,1-1.9,1.6c-0.1,0.1-0.1,0.2,0,0.4c0.1,0.1,0.2,0.1,0.4-0.1L10,8.9c0.4-0.5,0.8-0.7,1.2-1c0.5-0.2,0.8-0.2,1.3,0
	C12.8,8,12.9,8.1,13,8.3c0.6,0.5,1.2,1,1.7,1.4c0.1,0.1,0.2,0.1,0.4,0.1c0.1-0.1,0.1-0.2,0-0.4l-1.2-1.2c-0.4-0.4-0.6-0.5-1.1-0.7
	C12.7,7.4,12.3,7.4,11.9,7.4z M23.1,15.3c0,0.1,0,0.1-0.1,0.2c-0.8,2-1.8,4-2.6,5.9l-1,2.2c-0.2,0.5-0.5,0.5-0.8,0.2
	c-0.1-0.1-0.1-0.2-0.1-0.4c0.1-0.4,0.4-0.6,0.5-1c0.1-0.1,0-0.4-0.1-0.4c-0.1-0.1-0.2,0-0.4,0.1c-0.1,0.4-0.4,0.6-0.5,0.8
	c-0.1,0.4-0.2,0.4-0.5,0.2l-0.6-0.2c-0.4-0.1-0.5-0.4-0.2-0.6c0.5-1,0.8-2,1.3-3c0.6-1.3,1.3-2.8,1.8-4.1c0.1-0.4,0.4-0.6,0.5-1.1
	c0.1-0.2,0.4-0.4,0.6-0.2l0.6,0.4c0.2,0.1,0.4,0.2,0.2,0.5c-0.4,0.8-0.7,1.7-1.1,2.4c-0.5,1.1-1,2-1.3,3.1v0.2
	c0,0.1,0.1,0.1,0.2,0.1s0.2,0,0.2-0.1c0.1-0.4,0.4-0.6,0.5-1c0.6-1.6,1.3-3.1,2-4.7c0.1-0.2,0.2-0.2,0.5-0.2
	C23,14.9,23.1,15,23.1,15.3z M7.3,22.4c0,0.2-0.1,0.4-0.2,0.5c-0.2,0.1-0.5,0.2-0.7,0.4c-0.2,0.1-0.4,0-0.5-0.2
	c-0.1-0.4-0.4-0.6-0.5-1c0-0.1-0.1-0.2-0.2-0.2S4.9,22,5,22.2c0.1,0.4,0.2,0.6,0.5,0.8c0.1,0.4,0.1,0.5-0.1,0.5
	c-0.4,0.2-0.6,0.1-0.7-0.1c-0.1-0.4-0.4-0.6-0.5-1C3.1,20,2,17.6,1,15.2c0-0.1-0.1-0.1-0.1-0.2c0-0.2,0-0.4,0.2-0.5
	c0,0,0.1,0,0.1-0.1c0.2-0.1,0.4,0,0.5,0.2c0.2,0.5,0.5,1.1,0.7,1.6c0.5,1.4,1.1,2.8,1.7,4.1c0,0,0,0.1,0.1,0.1
	c0.1,0.1,0.2,0.1,0.4,0c0.1-0.1,0.1-0.2,0.1-0.4c-0.1-0.4-0.4-0.6-0.5-1c-0.7-1.6-1.3-3.1-2.2-4.7C2,14,2,13.9,2.4,13.9L3,13.5
	c0.4-0.1,0.5,0,0.6,0.2l3,6.6C6.9,21,7,21.6,7.4,22.2C7.1,22.4,7.3,22.4,7.3,22.4z M11.7,1.6H3.9c-0.1,0-0.1-0.1-0.1-0.1
	s0-0.1,0.1-0.2c0.2,0,0.4-0.1,0.6-0.4c0.4-0.2,0.6-0.4,1-0.5C5.8,0.1,6.2,0,6.5,0h10.2c0.4,0,0.7,0.1,1.1,0.2c0.6,0.4,1.2,0.6,1.8,1
	c0.1,0,0.2,0.1,0.1,0.2c0,0.1-0.1,0.1-0.2,0.1C16.9,1.6,14.3,1.6,11.7,1.6z M4.8,13.2l-0.2-0.2c-0.5-0.8-1-1.7-1.4-2.6
	c-0.5-0.8-1-1.8-1.6-2.8C1.4,7.4,1.3,7.1,1.4,6.7c0-0.5,0-1,0.1-1.4c0-0.1,0-0.2,0.1-0.4c0.1,0,0.2,0.1,0.2,0.2
	c1.3,2.2,2.4,4.3,3.7,6.6V12c-0.2,0.4-0.5,0.7-0.6,1.1C4.9,13.1,4.9,13.2,4.8,13.2z M22.1,6.1v0.7c0,0.2,0,0.5-0.2,0.6l-2.9,5
	c0,0.1-0.1,0.1-0.2,0.1l-0.1-0.1c-0.2-0.4-0.5-0.7-0.6-1.1v-0.2c1.2-1.9,2.4-4,3.6-6.1c0-0.1,0.1-0.1,0.2-0.1
	c0.4,0.1,0.4,0.2,0.4,0.4C22.1,5.3,22.1,6.1,22.1,6.1z M19.1,2h1.4c0.1,0,0.2,0.1,0.4,0.2c0.4,0.5,0.6,1.1,1,1.4
	C22,3.8,22,4,21.9,4.1c-0.2,0.5-0.5,0.7-0.6,1.2C20.6,4.2,20,3.1,19.1,2z M4.3,2c-0.6,1.1-1.2,2-1.9,3.2C2.2,5,2.2,4.9,2.1,4.8
	C1.9,4.6,1.8,4.3,1.5,4c0,0,0-0.1,0-0.4c0.4-0.5,0.7-1,1-1.4C2.6,2,2.6,1.9,2.8,1.9L4.3,2C4.2,2,4.3,2,4.3,2z"/>
</svg>
