<?xml version="1.0" encoding="utf-8"?>
<!-- Generator: Adobe Illustrator 26.2.1, SVG Export Plug-In . SVG Version: 6.00 Build 0)  -->
<svg version="1.1" id="Capa_1" xmlns="http://www.w3.org/2000/svg" xmlns:xlink="http://www.w3.org/1999/xlink" x="0px" y="0px"
	 viewBox="0 0 24 24" style="enable-background:new 0 0 24 24;" xml:space="preserve">
<style type="text/css">
	.st0{fill:#FFADF8;}
	.st1{fill:none;}
	.st2{fill:#321466;}
</style>
<path id="Rectangle_76" class="st0" d="M3.2,0h17.7C22.6,0,24,1.4,24,3.2v17.7c0,1.7-1.4,3.2-3.2,3.2H3.2C1.4,24,0,22.6,0,20.8V3.2
	C0,1.4,1.4,0,3.2,0z"/>
<path id="Vector-2" class="st1" d="M20,20H4V4h16V20z"/>
<g>
	<g>
		<path class="st2" d="M21.9,11c-1-0.6-1.5-1.5-1.8-2.6c-0.4-1.5-0.4-3.1-0.1-4.6c0.1-0.4,0-0.4-0.3-0.5c-1.1-0.4-2.1-0.8-3.2-1.2
			c-0.2-0.1-0.4,0-0.4,0c-0.6,0.2-1.3,0.4-1.9,0.6c-1,0.3-2,0.4-3.1,0.3C10,2.8,8.9,2.4,7.9,2.1C7.7,2,7.5,2,7.4,2.1
			C6.4,2.4,5.3,2.9,4.2,3.3C4,3.4,3.9,3.6,4,3.8C4.2,5.3,4.3,6.6,4.1,8c-0.3,1.2-0.9,2.4-1.9,3.1c-0.1,0.1-0.2,0.3-0.2,0.4V21
			c0,0.5,0.4,1,1.1,1h7.6c0.4,0,0.6-0.1,0.9-0.3c0.1-0.1,0.2-0.2,0.2-0.4v-2.7h-0.9c-0.4,0-0.4-0.1-0.5-0.4H2.7v-1.7h7.7v-0.2
			c0-0.4,0.1-0.4,0.5-0.4h0.8v-1.3h-0.8c-0.4,0-0.5-0.1-0.5-0.4V14H2.7v-1.3h7.7v-0.1c0-0.4,0.1-0.5,0.5-0.5h0.8V8.4
			c0-0.1,0-0.3-0.1-0.4L8.8,3.3c0-0.1,0-0.2-0.1-0.3c1.2,0.4,2.3,0.7,3.5,0.7c1.2,0,2.4-0.3,3.5-0.7c-0.1,0.2-0.2,0.2-0.2,0.3
			c-1.1,1.6-2,3.2-3,4.8c-0.1,0.1-0.1,0.3-0.1,0.4v3.7h0.9c0.4,0,0.5,0.1,0.5,0.4v0.2h7.6v1.3h-7.7v0.2c0,0.4-0.1,0.5-0.5,0.5h-0.8
			v1.3h0.9c0.2,0,0.4,0.1,0.4,0.4v0.4h7.7v1.7h-7.6c-0.2,0.4-0.2,0.4-0.5,0.4h-0.8h0c0,0.9,0,1.7-0.1,2.3c-0.1,0.4,0.1,0.6,0.4,0.7
			c0.2,0,0.4,0.1,0.5,0.1h7.7c0.5,0,1-0.4,1-1v-9.7C22.1,11.3,22,11.1,21.9,11z M13.1,12.9h-1.9v1.3h1.9V12.9z M13.1,17h-1.9v1.3
			h1.9V17z"/>
	</g>
</g>
</svg>
