<?xml version="1.0" encoding="utf-8"?>
<!-- Generator: Adobe Illustrator 26.2.1, SVG Export Plug-In . SVG Version: 6.00 Build 0)  -->
<svg version="1.1" id="Capa_1" xmlns="http://www.w3.org/2000/svg" xmlns:xlink="http://www.w3.org/1999/xlink" x="0px" y="0px"
	 viewBox="0 0 24 24" style="enable-background:new 0 0 24 24;" xml:space="preserve">
<style type="text/css">
	.st0{fill:#FFADF8;}
	.st1{fill:#321466;}
</style>
<path id="Rectangle_76" class="st0" d="M3.2,0h17.7C22.6,0,24,1.4,24,3.2v17.7c0,1.7-1.4,3.2-3.2,3.2H3.2C1.4,24,0,22.6,0,20.8V3.2
	C0,1.4,1.4,0,3.2,0z"/>
<g>
	<g>
		<path class="st1" d="M20,13.8c-0.2,0.1-0.3,0.1-0.4,0.2c-1,0.7-1.9,1.4-2.9,2.1c-0.5,0.4-1,0.7-1.6,0.8c-1,0.2-2.1,0.4-3.1,0.6
			c-0.4,0.1-0.8,0.1-1.2,0.1c-0.1,0-0.3,0-0.3-0.2c0-0.2,0.1-0.3,0.2-0.3c0,0,0.1,0,0.1,0c1.3-0.2,2.7-0.5,4-0.7
			c0.6-0.1,0.9-0.6,0.8-1.2c-0.1-0.5-0.5-0.8-1-0.8c-0.7,0-1.4,0.1-2.1,0.1c-1,0.1-2,0.1-3-0.1c-0.8-0.2-1.5-0.2-2.3,0
			c-0.6,0.2-1.1,0.4-1.6,0.6c-0.1,0-0.2,0.1-0.3,0c-0.2-0.2-0.5-0.3-0.7-0.3C4,14.8,3.5,14.9,3,15c-0.6,0.1-1,0.5-1,1.2
			c0,0.2,0.1,0.5,0.1,0.8c0.1,1.1,0.3,2.1,0.4,3.2c0.1,0.6,0.5,1,1.1,0.9C4.1,21,4.6,21,5,20.9c0.3,0,0.6-0.1,0.7-0.3
			c0.2-0.3,0.5-0.3,0.8-0.3c2.3,0,4.6-0.1,6.9-0.1c0.7,0,1.3-0.2,1.9-0.6c1.8-1.3,3.5-2.6,5.3-4c0.2-0.2,0.3-0.4,0.4-0.6
			c0.1-0.3,0-0.6-0.2-0.9C20.6,13.7,20.3,13.7,20,13.8z M7.2,7.4c0.1,0.1,0.3,0.1,0.5,0.2c0.2,0.1,0.2,0.2,0.2,0.4
			c0,0.3,0,0.7,0.1,1c0,0.3,0,0.4-0.3,0.6c-0.1,0-0.2,0.1-0.3,0.1C7.2,9.8,7.1,10,7.2,10.2c0.1,0.3,0.2,0.5,0.4,0.8
			c0.1,0.3,0.3,0.3,0.6,0.2C8.3,11.1,8.5,11,8.6,11c0.4,0.3,0.7,0.6,1.1,0.9c0.1,0.1,0.2,0.3,0.1,0.4c-0.1,0.2-0.1,0.3-0.2,0.5
			c-0.1,0.2,0,0.4,0.2,0.5c0.3,0.1,0.6,0.2,0.8,0.3c0.2,0.1,0.3,0,0.4-0.2c0.1-0.2,0.1-0.4,0.2-0.6c0-0.1,0.1-0.2,0.3-0.2
			c0.4,0,0.8,0,1.2,0c0.1,0,0.2,0,0.2,0.2c0.1,0.2,0.2,0.4,0.3,0.5c0.1,0.2,0.2,0.2,0.4,0.1c0.3-0.1,0.6-0.3,0.8-0.4
			c0.2-0.1,0.2-0.3,0.2-0.5c-0.1-0.2-0.1-0.3-0.2-0.5c-0.1-0.1-0.1-0.3,0.1-0.4c0.2-0.2,0.4-0.4,0.6-0.7c0.4-0.4,0.4-0.4,0.9-0.2
			c0,0,0.1,0,0.1,0c0.3,0.1,0.4,0,0.5-0.2c0.1-0.3,0.2-0.6,0.3-0.9c0.1-0.3,0-0.4-0.2-0.5C16.5,9,16.3,9,16.2,8.9
			c-0.1,0-0.1-0.1-0.1-0.2c0-0.3,0-0.7-0.1-1C15.9,7.3,16,7,16.4,6.9c0,0,0.1,0,0.1-0.1c0.2-0.1,0.3-0.3,0.2-0.5
			c-0.1-0.3-0.3-0.6-0.4-0.9c-0.1-0.2-0.3-0.3-0.5-0.2c-0.1,0.1-0.3,0.2-0.4,0.2c-0.1,0-0.3,0-0.3-0.1c-0.3-0.3-0.6-0.6-0.9-0.9
			c-0.1-0.1-0.1-0.2-0.1-0.2c0-0.2,0.1-0.4,0.2-0.5c0.1-0.3,0-0.4-0.3-0.5c-0.3-0.1-0.5-0.2-0.8-0.3c-0.2-0.1-0.4,0-0.5,0.2
			c-0.1,0.2-0.1,0.4-0.2,0.6c0,0.1-0.1,0.2-0.3,0.2c-0.4,0-0.8,0-1.3,0c-0.1,0-0.2-0.1-0.2-0.1c-0.1-0.2-0.2-0.3-0.3-0.5
			c-0.1-0.2-0.3-0.2-0.5-0.2C9.8,3.3,9.6,3.4,9.3,3.6C9.1,3.7,9,3.8,9.1,4.1c0.1,0.2,0.2,0.3,0.2,0.5c0,0.1,0,0.2,0,0.2
			C9.1,5.1,8.9,5.4,8.7,5.7C8.4,6,8.4,6,8,5.9c-0.1,0-0.2-0.1-0.3-0.1c-0.2,0-0.3,0-0.4,0.2C7.2,6.3,7.1,6.6,7,7
			C6.9,7.2,7,7.3,7.2,7.4z M10.3,6.4c0.6-0.6,1.4-0.9,2.3-0.6c0.9,0.3,1.4,0.9,1.7,1.8c0,0.1,0,0.2,0,0.3c0,0.1,0,0.2,0,0.3
			c0,0.8-0.3,1.5-0.9,2c-0.9,0.8-2.3,0.7-3.1-0.2C9.4,9,9.4,7.4,10.3,6.4z M21.7,7.6c-0.2,0-0.3-0.1-0.4-0.3c0-0.1-0.1-0.2-0.1-0.3
			c-0.1-0.2-0.1-0.3,0-0.4c0.1-0.1,0.2-0.3,0-0.4C21.2,6.1,21.1,6.1,21,6c-0.1-0.1-0.2-0.1-0.3,0c-0.2,0.2-0.4,0.3-0.7,0.1
			c0,0-0.1,0-0.2,0c-0.2,0-0.3-0.1-0.3-0.3c-0.1-0.3-0.2-0.4-0.5-0.3c-0.2,0-0.3,0.1-0.3,0.5c-0.1,0.1-0.1,0.2-0.2,0.2
			c-0.1,0.1-0.2,0.1-0.4,0.2c-0.1,0.1-0.2,0.1-0.4,0c-0.1-0.1-0.2-0.2-0.4-0.1c-0.2,0.2-0.3,0.5-0.2,0.6c0.3,0.2,0.2,0.4,0.1,0.7
			c0,0,0,0.1,0,0.1C17.3,7.9,17.2,8,17,8c-0.1,0-0.3,0-0.3,0.2c0,0.1,0,0.3,0,0.4c0,0.1,0.2,0.3,0.3,0.3c0.3,0,0.4,0.1,0.5,0.4
			c0,0.1,0.1,0.2,0.1,0.3c0,0.1,0,0.2,0,0.3c-0.2,0.4-0.2,0.4,0.1,0.7c0.1,0.1,0.3,0.2,0.4,0c0.2-0.2,0.4-0.2,0.6-0.1
			c0.2,0.1,0.4,0.2,0.5,0.5c0,0.3,0.3,0.2,0.5,0.2c0.2,0,0.3-0.1,0.3-0.3c0-0.2,0.1-0.4,0.3-0.5c0.1,0,0.1-0.1,0.2-0.1
			c0.2-0.1,0.3-0.2,0.5,0c0.1,0.2,0.3,0.1,0.4,0c0,0,0.1-0.1,0.1-0.1c0.1-0.2,0.1-0.3,0-0.5c-0.1-0.1-0.1-0.3-0.1-0.4
			c0-0.2,0.1-0.4,0.2-0.5c0-0.1,0.1-0.1,0.2-0.1C22,8.4,22,8.3,22,7.9C22,7.7,21.9,7.6,21.7,7.6z M19.3,9.3c-0.5,0-1-0.5-1-1.1
			c0-0.6,0.5-1.1,1-1.1c0.5,0,1,0.5,1,1.1C20.3,8.8,19.9,9.3,19.3,9.3z"/>
	</g>
</g>
</svg>
