<?xml version="1.0" encoding="utf-8"?>
<!-- Generator: Adobe Illustrator 26.2.1, SVG Export Plug-In . SVG Version: 6.00 Build 0)  -->
<svg version="1.1" id="Capa_1" xmlns="http://www.w3.org/2000/svg" xmlns:xlink="http://www.w3.org/1999/xlink" x="0px" y="0px"
	 viewBox="0 0 24 24" style="enable-background:new 0 0 24 24;" xml:space="preserve">
<style type="text/css">
	.st0{fill:#FFADF8;}
	.st1{fill:none;}
	.st2{fill:#321466;}
</style>
<path id="Rectangle_76" class="st0" d="M3.2,0h17.7C22.6,0,24,1.4,24,3.2v17.7c0,1.7-1.4,3.2-3.2,3.2H3.2C1.4,24,0,22.6,0,20.8V3.2
	C0,1.4,1.4,0,3.2,0z"/>
<path id="Vector-2" class="st1" d="M20,20H4V4h16V20z"/>
<g>
	<path class="st2" d="M12,3.3C12,3.3,12.1,3.3,12,3.3l8.7,8.6V12l-8.6,8.7h-0.2l-8.6-8.6V12L12,3.3C11.9,3.3,12,3.3,12,3.3 M12,2
		c-0.3,0-0.5,0.1-0.7,0.3l-9.1,9.1c-0.3,0.3-0.3,0.9,0,1.3l9.1,9.1c0.2,0.2,0.4,0.3,0.7,0.3s0.5-0.1,0.7-0.3l9.1-9.1
		c0.3-0.3,0.3-0.9,0-1.3l-9.1-9.1C12.5,2.1,12.3,2,12,2z"/>
	<path class="st2" d="M12.3,8.8l0.8-0.8c0.2-0.2,0-0.4-0.2-0.4L8.2,7.7l2.2,4.1c0.1,0.2,0.3,0.2,0.4,0l0.3-1.1l0.3,0.3
		c1,0.6,1.6,0.9,1.6,1.8v4.5h2.3v-4.8C15.3,10.5,13.4,9.3,12.3,8.8z"/>
</g>
</svg>
