<?xml version="1.0" encoding="utf-8"?>
<!-- Generator: Adobe Illustrator 26.2.1, SVG Export Plug-In . SVG Version: 6.00 Build 0)  -->
<svg version="1.1" id="Capa_1" xmlns="http://www.w3.org/2000/svg" xmlns:xlink="http://www.w3.org/1999/xlink" x="0px" y="0px"
	 viewBox="0 0 24 24" style="enable-background:new 0 0 24 24;" xml:space="preserve">
<style type="text/css">
	.st0{fill:url(#SVGID_1_);}
</style>
<linearGradient id="SVGID_1_" gradientUnits="userSpaceOnUse" x1="12" y1="5.0298" x2="12" y2="22.411">
	<stop  offset="0" style="stop-color:#FFFFFF"/>
	<stop  offset="1" style="stop-color:#808080"/>
</linearGradient>
<path class="st0" d="M20.3,13.9c0.7-0.1,1.1,0.2,1.2,0.7c0.2,0.8-0.1,1.8-0.9,2.3c-1.1,0.6-2.1,0.7-3.2,0c-2.7-1.9-5.8-3-8.9-4.3
	c-1.8-0.7-3.4-1.3-5.2-2.1C1,9.5,0.4,7.2,2,5.3C3.9,3,5.8,2.9,7.9,4l3.6,2.1c2.8,1.7,5.9,3,9,4c2.3,0.7,3.3,2.3,3.6,4.6
	c0.1,2.5-0.8,4.3-3,5.2c-1.2,0.5-2.4,0.6-3.6,0.7c-0.2,0-0.6-0.1-0.8-0.2c-5-3.2-10.3-5.7-15.9-7.4C0.3,13-0.1,12.7,0,12.1
	c0.1-0.6,0.6-0.6,1.2-0.5c5.2,1.5,10.2,3.7,14.8,6.6c1.5,0.9,2.8,0.9,4.3,0.4c2.5-0.9,3.2-4.7,1.2-6.5c-0.7-0.7-1.8-0.7-2.8-0.1
	c-0.9,0.5-1.4,1.5-1.3,2.5c0.1,0.6,0.5,1.2,0.9,1.2c0.6,0,1.3,0,1.8-0.4C20.8,15.2,20.7,14.5,20.3,13.9z M17.8,11.1
	c-2.4-1.3-4.9-2.5-7.2-3.8c-1.2-0.6-2.3-1.4-3.4-2C5.5,4.4,3.5,5.3,2.9,7c-0.4,0.8,0,1.7,0.8,2.1c0.4,0.1,0.6,0.2,0.9,0.5
	c3.8,1.5,7.5,3.2,11.3,4.7H16C16.2,12.6,16.5,12.1,17.8,11.1z"/>
</svg>
