<?xml version="1.0" encoding="utf-8"?>
<!-- Generator: Adobe Illustrator 26.2.1, SVG Export Plug-In . SVG Version: 6.00 Build 0)  -->
<svg version="1.1" baseProfile="tiny" id="Capa_1" xmlns="http://www.w3.org/2000/svg" xmlns:xlink="http://www.w3.org/1999/xlink"
	 x="0px" y="0px" viewBox="0 0 24 24" overflow="visible" xml:space="preserve">
<path id="Rectangle_76" fill="#FFADF8" d="M3.2,0h17.7C22.6,0,24,1.4,24,3.2v17.7c0,1.7-1.4,3.2-3.2,3.2H3.2C1.4,24,0,22.6,0,20.8
	V3.2C0,1.4,1.4,0,3.2,0z"/>
<path fill="#321466" d="M18.9,13.6c0.6-0.1,0.9,0.2,1,0.6c0.2,0.7-0.1,1.5-0.8,1.9c-0.9,0.5-1.8,0.6-2.7,0c-2.3-1.6-4.8-2.5-7.4-3.6
	c-1.5-0.6-2.9-1.1-4.4-1.8C2.8,9.9,2.3,8,3.7,6.4c1.6-1.9,3.2-2,4.8-1.1l3,1.8c2.4,1.4,4.9,2.5,7.5,3.4c1.9,0.6,2.8,1.9,3,3.9
	c0.1,2.1-0.7,3.6-2.5,4.4c-1,0.4-2,0.5-3,0.6c-0.2,0-0.5-0.1-0.7-0.2c-4.2-2.7-8.6-4.7-13.2-6.1c-0.4-0.1-0.7-0.3-0.6-0.8
	c0.1-0.5,0.5-0.5,1-0.4c4.4,1.3,8.5,3.1,12.4,5.5c1.3,0.8,2.4,0.8,3.6,0.3c2.1-0.8,2.7-4,1-5.4c-0.6-0.6-1.5-0.6-2.4-0.1
	c-0.8,0.4-1.2,1.3-1.1,2.1c0.1,0.5,0.4,1,0.8,1c0.5,0,1.1,0,1.5-0.3C19.3,14.7,19.2,14.1,18.9,13.6z M16.9,11.2
	c-2-1.1-4.1-2.1-6-3.2C9.8,7.6,8.9,6.9,8,6.4c-1.4-0.7-3.1,0-3.6,1.5c-0.3,0.7,0,1.4,0.7,1.8C5.4,9.8,5.6,9.8,5.9,10
	c3.2,1.3,6.2,2.7,9.4,4h0.1C15.5,12.5,15.8,12.1,16.9,11.2z"/>
</svg>
