<?xml version="1.0" encoding="utf-8"?>
<!-- Generator: Adobe Illustrator 26.2.1, SVG Export Plug-In . SVG Version: 6.00 Build 0)  -->
<svg version="1.1" id="Capa_1" xmlns="http://www.w3.org/2000/svg" xmlns:xlink="http://www.w3.org/1999/xlink" x="0px" y="0px"
	 viewBox="0 0 24 24" style="enable-background:new 0 0 24 24;" xml:space="preserve">
<style type="text/css">
	.st0{fill:url(#SVGID_1_);}
</style>
<linearGradient id="SVGID_1_" gradientUnits="userSpaceOnUse" x1="9.094947e-13" y1="12" x2="24" y2="12">
	<stop  offset="0" style="stop-color:#FFFFFF"/>
	<stop  offset="1" style="stop-color:#808080"/>
</linearGradient>
<path class="st0" d="M4.4,10.8h15.7c-0.1-0.2-0.2-0.4-0.3-0.5c-0.8-1.1-1.5-2.2-2.3-3.1c-0.9-1.2-1.3-1.3-2.7-0.6
	c-0.2,0.1-0.4,0.2-0.8,0.2c-0.2,0-0.5-0.1-0.8-0.1c0.1-0.2,0.1-0.6,0.2-0.6c0.6-0.4,1.3-0.8,1.9-1c0.9-0.3,1.6,0,2.2,0.6
	c1.5,1.6,2.9,3.2,4.4,4.8c0.1,0.1,0.2,0.3,0.3,0.4c1.3,0.4,1.3,1.5,1.3,2.6c0,0.5,0.1,1.2,0.2,1.7c0.1,0.8,0.3,1.5-0.6,2
	c-0.2,0.1-0.3,0.6-0.4,1.1c-0.2,0.6-0.6,1-1.4,1h-6.2c-0.6,0-1.1-0.2-1.4-0.9c-0.3-0.8-0.8-1.4-1.2-2.2c-0.4-0.6-0.9-0.6-1.3,0
	c-0.4,0.8-0.8,1.4-1.2,2.2c-0.3,0.5-0.8,0.9-1.4,0.9H2.5c-0.6,0-1.1-0.3-1.4-0.9S0.4,17.4,0,16.8c0.4-0.3,0.3-0.5,0.3-0.8
	c0.1-1.3,0.2-2.6,0.4-3.9c0.1-0.4,0.5-0.9,0.9-1.3c0.2-0.2,0.4-0.3,0.6-0.5c1.5-1.6,2.9-3.2,4.3-4.7c1-1,1.6-1.2,2.9-0.5
	c0.4,0.2,1,0.4,1.4,0.8c0.2,0.1,0.2,0.5,0.3,0.8c-0.2,0.1-0.5,0.2-0.8,0.2L9.2,6.2C8.5,5.9,7.9,6,7.4,6.6C6.5,8,5.5,9.3,4.4,10.8z"
	/>
</svg>
