<?xml version="1.0" encoding="utf-8"?>
<!-- Generator: Adobe Illustrator 26.2.1, SVG Export Plug-In . SVG Version: 6.00 Build 0)  -->
<svg version="1.1" baseProfile="tiny" id="Capa_1" xmlns="http://www.w3.org/2000/svg" xmlns:xlink="http://www.w3.org/1999/xlink"
	 x="0px" y="0px" viewBox="0 0 24 24" overflow="visible" xml:space="preserve">
<path id="Rectangle_76" fill="#FFADF8" d="M3.2,0h17.7C22.6,0,24,1.4,24,3.2v17.7c0,1.7-1.4,3.2-3.2,3.2H3.2C1.4,24,0,22.6,0,20.8
	V3.2C0,1.4,1.4,0,3.2,0z"/>
<path fill="#321466" d="M5.7,11h13.1c-0.1-0.2-0.2-0.4-0.3-0.4c-0.6-0.9-1.3-1.8-1.9-2.6c-0.7-1-1.1-1.1-2.2-0.5
	c-0.2,0.1-0.4,0.2-0.6,0.2c-0.2,0-0.4-0.1-0.6-0.1C13.2,7.3,13.2,7,13.3,7c0.5-0.4,1.1-0.6,1.6-0.8c0.7-0.3,1.3,0,1.8,0.5
	c1.3,1.3,2.4,2.7,3.7,4c0.1,0.1,0.2,0.3,0.3,0.4c1.1,0.4,1.1,1.3,1.1,2.2c0,0.4,0.1,1,0.2,1.4c0.1,0.6,0.3,1.3-0.5,1.7
	c-0.2,0.1-0.3,0.5-0.4,0.9c-0.2,0.5-0.5,0.8-1.2,0.8h-5.2c-0.5,0-0.9-0.2-1.2-0.7c-0.3-0.6-0.6-1.2-1-1.8c-0.4-0.5-0.7-0.5-1.1,0
	c-0.4,0.6-0.6,1.2-1,1.8c-0.3,0.4-0.6,0.7-1.2,0.7H4.1c-0.5,0-0.9-0.3-1.2-0.7S2.4,16.5,2,16c0.4-0.3,0.3-0.4,0.3-0.6
	c0.1-1.1,0.2-2.2,0.4-3.2c0.1-0.4,0.4-0.7,0.7-1.1c0.2-0.2,0.4-0.3,0.5-0.4c1.3-1.3,2.4-2.7,3.6-3.9c0.8-0.8,1.3-1,2.4-0.4
	c0.4,0.2,0.8,0.4,1.2,0.6c0.2,0.1,0.2,0.4,0.3,0.6c-0.2,0.1-0.4,0.2-0.6,0.2L9.6,7.1C9.1,7,8.5,7,8.2,7.5C7.4,8.7,6.6,9.7,5.7,11z"
	/>
</svg>
