<?xml version="1.0" encoding="utf-8"?>
<!-- Generator: Adobe Illustrator 26.2.1, SVG Export Plug-In . SVG Version: 6.00 Build 0)  -->
<svg version="1.1" baseProfile="tiny" id="Capa_1" xmlns="http://www.w3.org/2000/svg" xmlns:xlink="http://www.w3.org/1999/xlink"
	 x="0px" y="0px" viewBox="0 0 24 24" overflow="visible" xml:space="preserve">
<path d="M6.3,19.9l0.9,0.5c1.5,0.9,3.1,1.3,4.8,1.3c5.3,0,9.6-4.3,9.6-9.6S17.3,2.5,12,2.5s-9.6,4.3-9.6,9.6c0,1.7,0.4,3.4,1.3,4.8
	l0.5,0.9l-0.8,2.9C3.4,20.7,6.3,19.9,6.3,19.9z M0,24.1l1.6-6c-1.1-1.8-1.6-3.9-1.6-6c0-6.6,5.4-12,12-12s12,5.4,12,12
	s-5.4,12-12,12c-2.1,0-4.2-0.6-6-1.6L0,24.1z M7.6,6.4c0.2,0,0.3,0,0.5,0c0.1,0,0.1,0,0.2,0c0.2,0,0.4,0.1,0.5,0.3
	c0.4,0.8,0.7,1.6,1,2.4c0.1,0.2,0,0.4-0.1,0.6c-0.1,0.2-0.2,0.3-0.3,0.4C9.3,10.5,9,10.8,9,10.8s-0.1,0.1-0.1,0.3
	c0,0.1,0.1,0.2,0.1,0.2l0.1,0.1c0.3,0.5,0.7,1,1.2,1.5c0.1,0.1,0.3,0.3,0.4,0.4c0.6,0.5,1.2,0.9,1.9,1.2l0,0c0.1,0,0.2,0.1,0.3,0.1
	c0.1,0,0.2,0.1,0.2,0.1c0.2,0,0.3,0,0.4-0.2c0.9-1.1,0.9-1.1,1-1.1v0c0.1-0.1,0.3-0.2,0.5-0.2c0.1,0,0.1,0,0.2,0
	c0.6,0.3,1.7,0.7,1.7,0.7l0.7,0.3c0.1,0.1,0.2,0.2,0.2,0.3c0,0.1,0,0.2,0,0.4c0,0.3-0.1,0.7-0.2,0.9c-0.1,0.1-0.1,0.3-0.3,0.4
	c-0.1,0.1-0.3,0.2-0.4,0.3c0,0-0.1,0.1-0.1,0.1c-0.1,0.1-0.3,0.2-0.5,0.3c-0.3,0.2-0.7,0.3-1,0.3c-0.2,0-0.4,0-0.7,0
	c0,0-0.7-0.1-0.7-0.1c-1.7-0.4-3.3-1.3-4.6-2.5c-0.3-0.2-0.5-0.5-0.8-0.8c-1.1-1.1-1.9-2.2-2.4-3.3C6,10.4,5.8,9.8,5.8,9.2
	c0-0.7,0.2-1.4,0.7-2C6.6,7.1,6.7,7,6.8,6.8C7,6.7,7.1,6.6,7.2,6.6C7.3,6.5,7.5,6.5,7.6,6.4L7.6,6.4z"/>
</svg>
