<?xml version="1.0" encoding="utf-8"?>
<!-- Generator: Adobe Illustrator 26.2.1, SVG Export Plug-In . SVG Version: 6.00 Build 0)  -->
<svg version="1.1" id="Capa_1" xmlns="http://www.w3.org/2000/svg" xmlns:xlink="http://www.w3.org/1999/xlink" x="0px" y="0px"
	 viewBox="0 0 36 36" style="enable-background:new 0 0 36 36;" xml:space="preserve">
<style type="text/css">
	.st0{fill:#FFFFFF;}
	.st1{fill:url(#SVGID_1_);}
</style>
<circle class="st0" cx="18" cy="18" r="18"/>
<g>
	<linearGradient id="SVGID_1_" gradientUnits="userSpaceOnUse" x1="18" y1="11.0293" x2="18" y2="26.3255">
		<stop  offset="0" style="stop-color:#FF00D8"/>
		<stop  offset="1" style="stop-color:#B900BF"/>
	</linearGradient>
	<path class="st1" d="M29.7,24.5v1.1c0,0.3-0.2,0.5-0.5,0.5H24c-0.3,0-0.5-0.2-0.5-0.5v-13H22v-2.2c0-0.3,0.2-0.4,0.5-0.4h3.9v13.4
		H28v-9.5h0V8.5l-21.6,0c-0.8,0-1.5,0.7-1.5,1.5v2.5v1.7h4v13.2h5.8v0h7.2H24h5.7c0.9,0,1.6-0.7,1.6-1.6v-1.4H29.7z M10.3,25.6l0-13
		h-4v-2.2c0-0.3,0.2-0.5,0.5-0.5l6.3,0l0,16.1h-2.3C10.5,26.1,10.3,25.9,10.3,25.6z M16.7,26.1c-0.3,0-0.5-0.2-0.5-0.5v-13h-1.5
		v-2.3c0-0.2,0.1-0.3,0.3-0.3l0,0l3.9,0v13.2l2.9,0v2.9H16.7z"/>
</g>
</svg>
