<?xml version="1.0" encoding="utf-8"?>
<!-- Generator: Adobe Illustrator 26.2.1, SVG Export Plug-In . SVG Version: 6.00 Build 0)  -->
<svg version="1.1" id="Capa_1" xmlns="http://www.w3.org/2000/svg" xmlns:xlink="http://www.w3.org/1999/xlink" x="0px" y="0px"
	 viewBox="0 0 24 24" style="enable-background:new 0 0 24 24;" xml:space="preserve">
<style type="text/css">
	.st0{fill:url(#SVGID_1_);}
</style>
<g>
	<g>
		<linearGradient id="SVGID_1_" gradientUnits="userSpaceOnUse" x1="12" y1="4.863913e-02" x2="12" y2="23.2129">
			<stop  offset="0" style="stop-color:#FFFFFF"/>
			<stop  offset="1" style="stop-color:#808080"/>
		</linearGradient>
		<path class="st0" d="M22.5,0h-21C1.1,0,0.7,0.2,0.4,0.4C0.2,0.7,0,1.1,0,1.5v21C0,23.3,0.7,24,1.5,24h21c0.4,0,0.8-0.2,1.1-0.4
			c0.3-0.3,0.4-0.6,0.4-1.1v-21C24,0.7,23.3,0,22.5,0z M22.6,22.6H1.5c-0.1,0-0.1-0.1-0.1-0.1V1.4v0c0,0,0.1,0,0,0h21.1
			c0.1,0,0.1,0.1,0.1,0.1V22.6z M9,4.3c0-0.8-0.6-1.4-1.4-1.4H7.4C6.6,3,6.1,3.7,6.1,4.3c0,0.6,0.4,1.4,1.2,1.5h0.2
			C8.3,5.8,9,5.1,9,4.3z M19.4,6.4c-0.1,0-0.3-0.1-0.4-0.1h-0.9c-0.3,0-0.6,0.3-0.6,0.6v13.7c0,0.3,0.3,0.5,0.6,0.5
			c0.3,0,0.6-0.2,0.6-0.5V7.5h0.1c0.2,0,0.4,0.2,0.4,0.4V13c0.1,0.3,0.3,0.5,0.6,0.5s0.6-0.1,0.6-0.5V7.8C20.5,7.4,20,6.6,19.4,6.4z
			 M6.6,6.3H6.4C6.1,6.4,5.8,6.5,5.5,6.8C5.3,7,5.2,7.2,5,7.4c-0.4,1.3-1.5,4.9-1.5,5.1c0,0.3,0.3,0.6,0.6,0.6c0.2,0,0.4,0,0.5-0.2
			c0.1-0.1,0.1-0.1,0.1-0.2c0.4-1,0.7-2.1,1-3.1C5.8,9.3,5.9,9,6,8.8v1.5c-0.4,1.3-1.5,4.7-1.5,4.9s0.2,0.6,0.5,0.6h0.8v4.8
			c0,0.3,0.3,0.5,0.6,0.5c0.2,0,0.6-0.2,0.6-0.5v-5.5c0-0.2-0.2-0.5-0.5-0.5H5.9c0.3-1,1.3-3.9,1.3-4.1V6.8C7.2,6.5,6.8,6.3,6.6,6.3
			z M10,7.5C9.8,6.9,9.2,6.3,8.7,6.3H8.5c-0.2,0-0.6,0.2-0.6,0.5v3.8c0,0.1,0.7,2.1,0.9,2.8C8.9,13.6,8.9,13.8,9,14
			c0,0.2,0.1,0.5,0.2,0.7H8.5C8.3,14.7,8,15,8,15.2v5.5c0,0.3,0.3,0.5,0.6,0.5c0.2,0,0.6-0.2,0.6-0.5v-4.8h1c0.3,0,0.5-0.3,0.5-0.6
			c0-0.2-1-3.1-1.3-4.1c-0.1-0.3-0.2-0.5-0.3-0.8V8.8c0.3,0.9,0.5,1.7,0.8,2.6c0.1,0.6,0.2,1.1,0.5,1.6c0.1,0.2,0.4,0.2,0.5,0.2
			c0.3,0,0.6-0.3,0.6-0.6s-0.9-2.9-1.1-3.7C10.3,8.4,10.1,8,10,7.5z M16.1,6.3h-0.6h-0.3c-0.3,0.1-0.5,0.1-0.8,0.3
			c-0.5,0.4-0.7,0.9-0.7,1.3v5.2c0.1,0.3,0.3,0.5,0.6,0.5s0.6-0.1,0.6-0.5V7.9c0-0.2,0.3-0.4,0.4-0.4h0.1v13c0,0.3,0.3,0.5,0.6,0.5
			s0.6-0.2,0.6-0.5V6.8C16.6,6.6,16.4,6.3,16.1,6.3z M18.6,4.3c0-0.9-0.6-1.5-1.4-1.5c-0.9,0-1.5,0.7-1.5,1.5c0,0.8,0.6,1.5,1.5,1.4
			C18,5.7,18.6,5.1,18.6,4.3z"/>
	</g>
</g>
</svg>
