<?xml version="1.0" encoding="utf-8"?>
<!-- Generator: Adobe Illustrator 26.2.1, SVG Export Plug-In . SVG Version: 6.00 Build 0)  -->
<svg version="1.1" id="Capa_1" xmlns="http://www.w3.org/2000/svg" xmlns:xlink="http://www.w3.org/1999/xlink" x="0px" y="0px"
	 viewBox="0 0 24 24" style="enable-background:new 0 0 24 24;" xml:space="preserve">
<style type="text/css">
	.st0{fill:url(#SVGID_1_);}
</style>
<linearGradient id="SVGID_1_" gradientUnits="userSpaceOnUse" x1="11.6514" y1="4.543" x2="12.1439" y2="20.3035">
	<stop  offset="0" style="stop-color:#FFFFFF"/>
	<stop  offset="1" style="stop-color:#808080"/>
</linearGradient>
<path class="st0" d="M23.9,16.2c-0.1,0.4-0.2,1-0.3,1.4c-0.4,1.2-1.2,1.9-2.3,2.7c-1.1,0.8-2.3,1.1-3.5,1.2c-0.8,0-1.3-0.4-1.3-1.2
	v-8.7c0-0.9,0.4-1.3,1.3-1.3H18c-0.5-1.9-2.7-4.2-5.8-4.3c-3.2-0.1-5.6,2.2-6.3,4.3h0.4c0.5,0.1,0.9,0.4,1,1v9
	c0,0.9-0.4,1.3-1.3,1.3c-1.9-0.1-3.5-0.9-4.8-2.4c-1.5-1.7-1.6-4.3-0.3-6.2c0.3-0.4,0.8-0.8,1.1-1.2c0.1-0.1,0.2-0.2,0.2-0.4
	c0.1-1.1,0.3-2.1,0.9-3.1C3.6,7,4.4,6,5.3,5.1c1.1-1,2.3-1.7,3.7-2.2c1.1-0.3,2.3-0.5,3.5-0.4c1.4,0.1,2.7,0.4,3.9,1
	C17.8,4.2,19,5.3,20,6.7c0.9,1.2,1.4,2.5,1.6,4c0,0.2,0,0.5,0.1,0.8c0,0.1,0.1,0.2,0.2,0.3c0.8,0.6,1.4,1.4,1.7,2.3
	c0.2,0.4,0.2,1,0.3,1.4C23.9,15.8,23.9,16,23.9,16.2z"/>
</svg>
