<?xml version="1.0" encoding="utf-8"?>
<!-- Generator: Adobe Illustrator 26.2.1, SVG Export Plug-In . SVG Version: 6.00 Build 0)  -->
<svg version="1.1" baseProfile="tiny" id="Capa_1" xmlns="http://www.w3.org/2000/svg" xmlns:xlink="http://www.w3.org/1999/xlink"
	 x="0px" y="0px" viewBox="0 0 24 24" overflow="visible" xml:space="preserve">
<path id="Rectangle_76" fill="#FFADF8" d="M3.2,0h17.7C22.6,0,24,1.4,24,3.2v17.7c0,1.7-1.4,3.2-3.2,3.2H3.2C1.4,24,0,22.6,0,20.8
	V3.2C0,1.4,1.4,0,3.2,0z"/>
<g>
	<path fill="#321466" d="M5.5,8c1.3,1.5,2.7,2.8,3.9,4.3c0.8,1,1.6,2.3,2.1,3.6c0.9,2.3,2.3,3.6,4.8,3.6c1.5,0,3-0.2,4.5-0.3
		c0.6-0.1,0.9-0.4,0.6-1c-0.2-0.3-0.5-0.6-0.8-0.7c-1-0.3-2.2-0.7-2.8-1.7c-0.5-0.9-1.2-1.1-2.2-1c-0.6,0.1-1.1-0.4-1.1-1
		c-0.1-0.6,0.4-1,1.1-1.1c0.3-0.1,0.8,0,1.1-0.1c0.2-0.1,0.3-0.2,0.4-0.3c-0.1-0.1-0.2-0.3-0.3-0.3c-0.3-0.2-0.7-0.3-1-0.4
		c-0.6-0.3-0.9-0.9-0.7-1.4c0.3-0.5,0.8-0.8,1.5-0.6C17,9.5,17.5,9.7,18,9.9c0.3-0.5,0.4-1,0.7-1.4l0.8-1.3c0.8-1.3,0.8-1.7-0.5-2.4
		c-0.3-0.1-0.4-0.3-0.7-0.3c-1-0.4-1.8-0.3-2.3,0.6c-0.4,0.7-0.7,1.5-1,2.3c-0.2,0.4-0.3,0.9-0.3,1.3c-0.1-0.6-0.1-1.1,0-1.7
		c0-0.5-0.1-0.8-0.5-1c-0.7-0.3-1-0.9-1-1.7c0-0.3,0.1-0.5,0-0.7c-0.3-0.4-0.6-1-1-1.2c-0.3-0.2-0.8,0-1.1,0.3
		C9.4,3.6,7.9,4.8,6.4,6c-0.5,0.4-1,0.8-1.7,1.3C5.1,7.6,5.3,7.9,5.5,8z M18.5,11.2c0-0.1-0.1-0.3-0.2-0.3c-0.7-0.3-1.4-0.5-2.1-0.7
		c-0.2,0-0.3,0.2-0.5,0.3c0.1,0.2,0.1,0.3,0.2,0.3l2.3,0.8C18.3,11.4,18.5,11.2,18.5,11.2z M17.6,13.2c-0.7-0.1-1.3-0.1-2,0
		c-0.1,0-0.3,0.3-0.3,0.3c0.2,0.1,0.3,0.3,0.4,0.3h0.9h1c0.2-0.1,0.3-0.3,0.4-0.3C17.8,13.5,17.7,13.2,17.6,13.2z M21.6,19.9
		c0,0-0.3,0-0.3,0c-1.9,0.1-3.7,0.3-5.6,0.3c-2.4-0.1-4.1-1.5-4.7-3.6c-0.3-1.3-0.9-2.4-1.7-3.4c-1.5-1.7-3-3.2-4.4-4.9
		C4.6,8.2,4.5,8,4.3,7.9C3.9,8.3,3.5,8.6,3.1,9S2.4,9.7,2,10c0.4,0.5,0.8,0.9,1.1,1.3c0-0.1,0.1-0.2,0.1-0.3c0.4,0.1,1,0,1.3,0.3
		c0.3,0.3,0.4,0.8,0.3,1.1c-0.1,0.4,0,0.6,0.3,0.8c0.3,0.3,0.4,0.9,1.1,0.6C7,13.5,7.7,14.2,7.6,15c-0.1,0.2-0.2,0.3-0.2,0.4
		c0.4,0.5,0.8,0.9,1.1,1.3c0.2-0.2,0.3-0.3,0.4-0.3c0.1-0.1,0.3-0.2,0.3-0.3c0.9,2.3,1.9,4.4,4.2,5.4c0.4-0.3,0.9-0.8,1.2-0.7
		c0.3,0.1,0.8,0.6,1.1,0.9c0,0.2,0.2,0.2,0.3,0.2c0.5,0,1,0.2,1.4-0.5c0.3-0.4,1-0.3,1.5,0.1c0.2,0.2,0.3,0.3,0.5,0.3
		c0.8-0.2,1.6-0.4,2.4-0.6C21.8,20.6,21.7,20.3,21.6,19.9z"/>
</g>
</svg>
