<?xml version="1.0" encoding="utf-8"?>
<!-- Generator: Adobe Illustrator 26.2.1, SVG Export Plug-In . SVG Version: 6.00 Build 0)  -->
<svg version="1.1" id="Capa_1" xmlns="http://www.w3.org/2000/svg" xmlns:xlink="http://www.w3.org/1999/xlink" x="0px" y="0px"
	 viewBox="0 0 24 24" style="enable-background:new 0 0 24 24;" xml:space="preserve">
<style type="text/css">
	.st0{fill:#FFADF8;}
	.st1{fill:none;}
	.st2{fill:#321466;}
</style>
<path id="Rectangle_76" class="st0" d="M1.8,0h20.4c1,0,1.8,0.8,1.8,1.8v20.4c0,1-0.8,1.8-1.8,1.8H1.8c-1,0-1.8-0.8-1.8-1.8V1.8
	C0,0.8,0.8,0,1.8,0z"/>
<path id="Vector-2" class="st1" d="M20,20H4V4h16V20z"/>
<g>
	<g>
		<path class="st2" d="M19.3,20.1l-0.7-0.7l-1.2-1.2c-0.5-0.5-0.7-1-0.7-1.7v-6.4c0-1.2-0.2-2.3-0.4-3.4c-0.4-1.2-0.9-2-1.4-2.7
			c-0.6-0.7-1.3-1-2.1-0.9H8.1c-0.6,0-1,0.2-1.4,0.5c-0.6,0.4-1,1-1.4,2C4.8,6.5,4.6,7.6,4.5,9c-0.2,1.8,0,3.5,0.4,5
			c0.3,1.1,0.7,2,1.3,2.6c0.6,0.7,1.3,1,2.1,0.9h2.3v0.9c0,1.4,1.1,2.5,2.5,2.5h5.8c0.2,0,0.4,0,0.6-0.3
			C19.7,20.3,19.4,20.1,19.3,20.1z M10.6,16.6H9.9c0.3-0.3,0.6-0.8,0.8-1.2V16.6z M9.9,14.7c-0.2,0.3-0.3,0.6-0.5,0.9l-0.2,0.3
			l-0.3,0.3c-0.3,0.3-0.6,0.5-0.9,0.4c-0.3,0-0.7-0.2-0.9-0.5c-0.4-0.4-0.8-1-1-1.8c-0.5-1.4-0.7-3-0.6-4.7C5.5,8.2,5.7,7,6.1,6
			C6.4,5.4,6.6,4.9,7,4.5l0.4-0.4C7.6,4,7.8,4,8,4S8.4,4,8.6,4.1c0.3,0.3,0.6,0.5,0.9,1C9.9,6,10.2,6.9,10.4,8
			c0.1,0.5,0.1,1.1,0.2,1.4l0.1,0.4C10.6,12,10.4,13.4,9.9,14.7z M13.1,20.1c-0.9,0-1.4-0.6-1.4-1.4v-8.1c0-1.7-0.3-3.2-0.7-4.4
			c-0.3-0.8-0.6-1.4-1.1-2h3.1c0.4-0.2,0.9,0,1.2,0.3c0.4,0.5,0.7,1,1,1.9c0.4,1.1,0.6,2.4,0.6,3.8v6.4c0,0.9,0.3,1.8,1,2.5l0.9,0.9
			l0.2,0.2H13.1z M8.8,6.9c-0.5-0.4-1.1-0.4-1.6,0C7.1,7.1,6.8,7.4,6.7,7.5c-0.5,0.9-0.6,1.9-0.6,2.6c0,0.9,0.1,1.4,0.3,2
			c0.2,0.4,0.3,0.9,0.8,1.3c0.3,0.3,0.5,0.3,0.9,0.3c0.3,0,0.6-0.1,0.9-0.3C9,13.3,9.3,13,9.4,12.6c0.6-1.4,0.7-3,0.2-4.6
			C9.4,7.6,9.2,7.3,8.8,6.9z M8.5,12.3c-0.1,0.2-0.2,0.3-0.3,0.4c-0.1,0.1-0.2,0.2-0.3,0.2c-0.1,0-0.2-0.1-0.3-0.2
			c-0.2-0.2-0.3-0.3-0.3-0.5C7,10.9,7,9.7,7.4,8.4C7.5,8.2,7.6,8,7.7,7.9C7.8,7.8,7.9,7.7,8,7.7c0.1,0,0.2,0.1,0.3,0.2
			C8.4,8,8.5,8.3,8.7,8.6c0.2,0.5,0.3,1,0.3,1.8C8.9,10.9,8.8,11.6,8.5,12.3z"/>
	</g>
</g>
</svg>
