<?xml version="1.0" encoding="utf-8"?>
<!-- Generator: Adobe Illustrator 26.2.1, SVG Export Plug-In . SVG Version: 6.00 Build 0)  -->
<svg version="1.1" id="Capa_1" xmlns="http://www.w3.org/2000/svg" xmlns:xlink="http://www.w3.org/1999/xlink" x="0px" y="0px"
	 viewBox="0 0 24 24" style="enable-background:new 0 0 24 24;" xml:space="preserve">
<style type="text/css">
	.st0{fill:#FFADF8;}
	.st1{fill:#321466;}
</style>
<path id="Rectangle_76" class="st0" d="M3.2,0h17.7C22.6,0,24,1.4,24,3.2v17.7c0,1.7-1.4,3.2-3.2,3.2H3.2C1.4,24,0,22.6,0,20.8V3.2
	C0,1.4,1.4,0,3.2,0z"/>
<path class="st1" d="M12,21c-1.5,0-3-0.3-4.3-0.9L3.2,21c-0.4,0.1-0.7-0.1-1-0.3c-0.2-0.3-0.3-0.7-0.2-1l1.2-3.2
	C2.4,15.1,2,13.6,2,12c0-5,4.5-9,10-9s10,4,10,9C22,17,17.5,21,12,21z M7.7,18.1c0.1,0,0.3,0,0.4,0.1C9.4,18.7,10.7,19,12,19
	c4.4,0,8-3.1,8-7s-3.6-7-8-7s-8,3.1-8,7c0,1.3,0.4,2.6,1.2,3.7c0.2,0.3,0.2,0.6,0.1,0.9l-0.8,2l3-0.6C7.6,18.1,7.7,18.1,7.7,18.1z
	 M16,13c-0.6,0-1-0.4-1-1s0.4-1,1-1h0c0.6,0,1,0.4,1,1S16.6,13,16,13z M12,13c-0.6,0-1-0.4-1-1s0.4-1,1-1h0c0.6,0,1,0.4,1,1
	S12.6,13,12,13z M8,13c-0.6,0-1-0.4-1-1s0.4-1,1-1h0c0.6,0,1,0.4,1,1S8.6,13,8,13z"/>
</svg>
