<?xml version="1.0" encoding="utf-8"?>
<!-- Generator: Adobe Illustrator 26.2.1, SVG Export Plug-In . SVG Version: 6.00 Build 0)  -->
<svg version="1.1" id="Capa_1" xmlns="http://www.w3.org/2000/svg" xmlns:xlink="http://www.w3.org/1999/xlink" x="0px" y="0px"
	 viewBox="0 0 24 24" style="enable-background:new 0 0 24 24;" xml:space="preserve">
<style type="text/css">
	.st0{fill:url(#SVGID_1_);}
</style>
<g>
	<g>
		<linearGradient id="SVGID_1_" gradientUnits="userSpaceOnUse" x1="12" y1="0.234" x2="12" y2="23.8306">
			<stop  offset="0" style="stop-color:#FFFFFF"/>
			<stop  offset="1" style="stop-color:#808080"/>
		</linearGradient>
		<path class="st0" d="M22.5,0h-21C1.1,0,0.7,0.2,0.4,0.4C0.2,0.7,0,1.1,0,1.5v21C0,23.3,0.7,24,1.5,24h21c0.4,0,0.8-0.2,1.1-0.4
			c0.3-0.3,0.4-0.6,0.4-1.1v-21C24,0.7,23.3,0,22.5,0z M22.6,22.6H1.5c-0.1,0-0.1-0.1-0.1-0.1V1.4v0c0,0,0.1,0,0,0h21.1
			c0.1,0,0.1,0.1,0.1,0.1V22.6z M11.1,11c-0.3-0.1-0.6,0-0.8,0.2c-0.3-0.5-0.8-0.8-1.6-0.6c-0.4-0.4-1-0.7-1.8-0.5L6.7,5.7
			c0-0.4-0.4-0.6-0.9-0.6c-0.6,0-1,0.3-1,0.7c0,0,0.1,8.1,0,8.3c-0.1,0.2-0.2,0-0.2,0v-2.5c0-0.6-0.3-0.9-0.8-0.9s-0.9,0.3-1,0.8
			v3.3c0.1,1.5,0.8,3,2.2,4.3c-0.1,0.6,0.1,2,0.2,2.8c0,0.1,0.1,0.2,0.3,0.2h5.2c0.1,0,0.2-0.1,0.2-0.2c0.3-0.7,0.3-1.6,0-2.9
			l0.8-1.9v-5.6C11.7,11.4,11.5,11.1,11.1,11z M4.2,7.7c0,0,0.5,0,0.5-0.3V5.8c0-0.1,0-0.1-0.1-0.2C4.3,5.4,4.3,5.2,4.3,4.9
			c0-0.7,0.6-1.2,1.4-1.2C6.4,3.7,7,4.2,7,4.9c0,0.2,0,0.5-0.1,0.7v1.8c0,0.3,0.3,0.3,0.3,0.3c0.7,0,1.3-0.6,1.3-1.4v-3
			c0-0.8-0.6-1.4-1.3-1.4h-3c-0.7,0-1.3,0.6-1.3,1.4v3C2.8,7,3.4,7.7,4.2,7.7z M20.7,10.5c0,0,0.1,0.1,0.2,0.1H21
			c0.1,0,0.1-0.1,0.1-0.2v-3c0-0.1-0.1-0.2-0.2-0.3c-1-0.2-1.9-1.5-2.6-4c0-0.1-0.1-0.2-0.3-0.2c-0.1,0-0.2,0.1-0.3,0.2
			C16.6,6.9,18.7,9,20.7,10.5z M14.8,6.7C14.9,7.1,15,7.5,15.2,8c1,2.6,2.6,4,4.6,4c0.4,0,0.7,0,1.1-0.1c0.1,0,0.2-0.1,0.2-0.3
			c0-0.2-0.1-0.2-0.2-0.3c-0.9-0.2-2.5-2.1-2.7-2.9c-0.1-0.3-0.3-0.5-0.4-0.8c-0.6-1.4-1.5-3.4-3.9-3.4h-0.1c-0.1,0-0.2,0.1-0.2,0.2
			c0,0.1,0,0.2,0.1,0.3C14.4,5.1,14.6,5.9,14.8,6.7z M20.8,12.7c-1.7,0.3-5.1-2-6.1-4.1c0-0.1-0.2-0.2-0.3-0.1
			c-0.1,0-0.2,0.1-0.2,0.2c-0.3,1.1,0,2.5,0.8,3.7c1.2,2,3.3,3.4,5.7,3.9h0.1c0.1,0,0.1,0,0.2-0.1c0.1,0,0.1-0.1,0.1-0.2v-3
			c0-0.1,0-0.1-0.1-0.2C20.9,12.8,20.9,12.7,20.8,12.7z M21,17.2c-1-0.2-3.2-1.2-3.7-2.1c0,0,0-0.1-0.1-0.1c-1.8-1.6-3.4-1.8-5-0.8
			c-0.1,0.1-0.1,0.2-0.1,0.3s0.1,0.2,0.2,0.2c1.1,0.4,2.1,0.8,2.8,2.1c0.3,0.6,1.3,1.4,2.6,1.7c0.3,0.1,0.6,0.1,0.9,0.1
			c0.8,0,1.7-0.2,2.5-0.9c0.1-0.1,0.1-0.2,0.1-0.3C21.2,17.3,21.1,17.2,21,17.2z M20.8,18.7C20.9,18.6,20.8,18.6,20.8,18.7
			c-2,0.6-5.4-0.1-6.1-1.3c-0.1-0.1-0.2-0.1-0.3-0.1c-0.1,0-0.2,0.1-0.2,0.2c-0.1,0.8,0.3,2.1,1.3,3c0.7,0.7,2,1.5,4,1.5
			c0.4,0,0.8,0,1.2-0.1c0.1,0,0.2-0.1,0.2-0.3v-2.7C20.9,18.8,20.9,18.7,20.8,18.7z"/>
	</g>
</g>
</svg>
