<?xml version="1.0" encoding="utf-8"?>
<!-- Generator: Adobe Illustrator 26.2.1, SVG Export Plug-In . SVG Version: 6.00 Build 0)  -->
<svg version="1.1" id="Capa_1" xmlns="http://www.w3.org/2000/svg" xmlns:xlink="http://www.w3.org/1999/xlink" x="0px" y="0px"
	 viewBox="0 0 24 24" style="enable-background:new 0 0 24 24;" xml:space="preserve">
<style type="text/css">
	.st0{fill:url(#SVGID_1_);}
</style>
<g>
	<g>
		<linearGradient id="SVGID_1_" gradientUnits="userSpaceOnUse" x1="12" y1="1.4569" x2="12" y2="23.8794">
			<stop  offset="0" style="stop-color:#FFFFFF"/>
			<stop  offset="1" style="stop-color:#808080"/>
		</linearGradient>
		<path class="st0" d="M11.9,6.3c-0.6,0.8-0.6,0.8-0.7,0.9l-0.9,0.9v0.1L10.2,14l-0.9,1H8.9l-0.4-0.3H8.4L8,14.5H7.9L7.4,15
			l-0.7,0.6H6.5c-0.1,0-0.1,0-0.1,0.1L6.2,16c-0.1,0-0.1,0.1,0,0.2c0,0.1,0.1,0.1,0.1,0.1c1,0.1,2-0.1,2.9-0.2L9.6,16
			c0,0,0.1,0,0.1-0.1l0.9-0.9c0.2,0,0.5,0,0.6-0.1c0.2-0.1,0.3-0.4,0.3-0.8l1.1-1.1l-0.7,1.5v0.1l-0.3,3c-0.1,0.4,0.2,0.7,0.5,0.7
			c0.3,0,0.7-0.2,0.8-0.6l0.6-2.7l0.9-1.2h0.1l0.1,4.1c0.1,0.3,0.3,0.5,0.6,0.5s0.6-0.2,0.6-0.6l0.2-6.6V11L15.2,10l0.4-0.4
			c0.3,0,0.5,0,0.6-0.2c0.1-0.1,0.1-0.3,0.1-0.6l0.4-0.4c0.1-0.1,0.2-0.3,0.1-0.5c0-0.1-0.2-0.2-0.3-0.3c-0.2,0-0.4,0.1-0.5,0.2v0.1
			l-0.4-1.7C15.6,6,15.5,6,15.4,6L11.9,6.3C11.9,6.2,11.9,6.2,11.9,6.3z M14.6,7.7l0.5,1.2l-0.4,0.4l-1.1-1.5L14.6,7.7z M11.4,12.7
			l0.2-2.7l1.2,1.3L11.4,12.7z M9.1,7.5l0.6-0.2c0.2,0.1,0.4,0.1,0.6,0.1c0.7,0,1.3-0.5,1.3-1.2c0-0.3-0.1-0.5-0.3-0.7l0.1-0.3V5
			c0-0.1-0.1-0.1-0.2,0l-0.3,0.1C10.7,5,10.5,5,10.3,5C9.5,5.2,9,5.7,9,6.3c0,0.2,0,0.3,0.1,0.5L8.9,7.5c-0.1,0,0,0.1,0,0.1H9.1z
			 M23.7,11.2L12.8,0.3C12.6,0.2,12.3,0,12,0s-0.6,0.1-0.8,0.3L0.3,11.2c-0.4,0.4-0.4,1.1,0,1.5l10.9,10.9c0.2,0.2,0.5,0.3,0.8,0.3
			s0.6-0.1,0.8-0.3l10.9-10.9C24.1,12.3,24.1,11.7,23.7,11.2z M22.4,12L12.1,22.3h-0.2L1.6,12V12L12,1.7L22.4,12L22.4,12z"/>
	</g>
</g>
</svg>
