<?xml version="1.0" encoding="utf-8"?>
<!-- Generator: Adobe Illustrator 26.2.1, SVG Export Plug-In . SVG Version: 6.00 Build 0)  -->
<svg version="1.1" id="Capa_1" xmlns="http://www.w3.org/2000/svg" xmlns:xlink="http://www.w3.org/1999/xlink" x="0px" y="0px"
	 viewBox="0 0 24 24" style="enable-background:new 0 0 24 24;" xml:space="preserve">
<style type="text/css">
	.st0{fill:#FFADF8;}
	.st1{fill:none;}
	.st2{fill:#321466;}
</style>
<path id="Rectangle_76" class="st0" d="M3.2,0h17.7C22.6,0,24,1.4,24,3.2v17.7c0,1.7-1.4,3.2-3.2,3.2H3.2C1.4,24,0,22.6,0,20.8V3.2
	C0,1.4,1.4,0,3.2,0z"/>
<path id="Vector-2" class="st1" d="M20,20H4V4h16V20z"/>
<g>
	<g>
		<path class="st2" d="M11.9,6.8c-0.6,0.7-0.6,0.7-0.6,0.8l-0.8,0.8v0.1l-0.1,5.2l-0.8,0.9H9.1l-0.4-0.3H8.7l-0.4-0.2H8.2l-0.5,0.5
			l-0.6,0.6H6.9c-0.1,0-0.1,0-0.1,0.1l-0.2,0.3c-0.1,0-0.1,0.1,0,0.2c0,0.1,0.1,0.1,0.1,0.1c0.9,0.1,1.8-0.1,2.7-0.2l0.4-0.1
			c0,0,0.1,0,0.1-0.1l0.8-0.8c0.2,0,0.5,0,0.6-0.1c0.2-0.1,0.3-0.4,0.3-0.7l1-1l-0.6,1.4v0.1l-0.3,2.8c-0.1,0.4,0.2,0.6,0.5,0.6
			s0.6-0.2,0.7-0.6l0.6-2.5l0.8-1.1h0.1l0.1,3.8c0.1,0.3,0.3,0.5,0.6,0.5c0.3,0,0.6-0.2,0.6-0.6l0.2-6.1v-0.1l-0.7-1l0.4-0.4
			c0.3,0,0.5,0,0.6-0.2C16,9.5,16,9.3,16,9l0.4-0.4c0.1-0.1,0.2-0.3,0.1-0.5c0-0.1-0.2-0.2-0.3-0.3c-0.2,0-0.4,0.1-0.5,0.2v0.1
			l-0.4-1.6c0-0.1-0.1-0.1-0.2-0.1L11.9,6.8C11.9,6.7,11.9,6.7,11.9,6.8z M14.4,8l0.5,1.1l-0.4,0.4l-1-1.4L14.4,8z M11.4,12.6
			l0.2-2.5l1.1,1.2L11.4,12.6z M9.3,7.9l0.6-0.2c0.2,0.1,0.4,0.1,0.6,0.1c0.6,0,1.2-0.5,1.2-1.1c0-0.3-0.1-0.5-0.3-0.6l0.1-0.3V5.6
			c0-0.1-0.1-0.1-0.2,0L11,5.7c-0.2-0.1-0.4-0.1-0.6-0.1C9.7,5.7,9.2,6.2,9.2,6.8c0,0.2,0,0.3,0.1,0.5L9.1,7.8c-0.1,0,0,0.1,0,0.1
			H9.3z M22.8,11.3l-10-10C12.6,1.1,12.3,1,12,1c-0.3,0-0.6,0.1-0.7,0.3l-10,10c-0.4,0.4-0.4,1,0,1.4l10,10c0.2,0.2,0.5,0.3,0.7,0.3
			c0.3,0,0.6-0.1,0.7-0.3l10-10C23.1,12.3,23.1,11.7,22.8,11.3z M21.6,12l-9.5,9.5h-0.2L2.4,12V12L12,2.5L21.6,12L21.6,12z"/>
	</g>
</g>
</svg>
