<?xml version="1.0" encoding="utf-8"?>
<!-- Generator: Adobe Illustrator 26.2.1, SVG Export Plug-In . SVG Version: 6.00 Build 0)  -->
<svg version="1.1" id="Capa_1" xmlns="http://www.w3.org/2000/svg" xmlns:xlink="http://www.w3.org/1999/xlink" x="0px" y="0px"
	 viewBox="0 0 24 24" style="enable-background:new 0 0 24 24;" xml:space="preserve">
<style type="text/css">
	.st0{fill:url(#SVGID_1_);}
</style>
<g>
	<g>
		<linearGradient id="SVGID_1_" gradientUnits="userSpaceOnUse" x1="11.5108" y1="2.114" x2="12.2092" y2="23.7616">
			<stop  offset="0" style="stop-color:#FFFFFF"/>
			<stop  offset="1" style="stop-color:#808080"/>
		</linearGradient>
		<path class="st0" d="M23.2,16.6c-0.2-0.2-0.5-0.4-0.8-0.5c-1-0.5-2.2-0.9-3.2-1.4c-0.3-0.2-0.7-0.3-1.1-0.5c0.1,0.4,0.2,0.7,0.3,1
			c0.2,0.5,0.2,1-0.2,1.5c-0.3,0.5-0.8,0.8-1.2,1c-1.2,0.7-2.5,0.9-3.8,1c-1.6,0.1-3.4,0-5-0.6c-0.7-0.3-1.4-0.6-2.1-1.2
			c-0.5-0.5-0.6-1-0.4-1.7c0-0.2,0.1-0.5,0.2-0.7C6,14.4,6,14.3,6,14.2c-0.6,0.3-1.3,0.5-1.9,0.9c-0.8,0.4-1.7,0.8-2.6,1.2
			c-0.3,0.1-0.5,0.3-0.7,0.5c-0.3,0.3-0.3,0.7,0,1c0.2,0.1,0.4,0.3,0.5,0.4l0.9,0.6c1.9,1.2,3.8,2.4,5.7,3.5
			c0.8,0.5,1.7,0.9,2.7,1.3c0.9,0.4,1.9,0.4,3,0c0.5-0.2,1-0.3,1.4-0.6l3.1-1.8c1.3-0.8,2.8-1.6,4.2-2.6c0.3-0.2,0.7-0.5,1-0.9
			C23.6,17.4,23.6,16.9,23.2,16.6z M7.8,13.8c1,0.5,2.2,0.7,3.3,0.8c1.5,0.1,3,0,4.4-0.6c0.6-0.2,1-0.4,1.4-0.9
			c0.3-0.3,0.4-0.7,0.3-1.1c-0.1-0.4-0.2-0.7-0.3-1.1c-0.3-0.8-0.6-1.7-0.9-2.7c-0.3,0.6-0.8,0.9-1.3,1.1c-1.6,0.6-3.4,0.6-5,0.1
			C9,9.2,8.4,8.9,8.1,8.3H8C7.9,8.4,7.9,8.6,7.7,8.6c-0.3,1-0.7,1.9-1,3c-0.3,0.7-0.1,1.2,0.4,1.7C7.3,13.5,7.5,13.7,7.8,13.8z
			 M12,5.8c1,0,1.9-0.3,2.8-1c0.1-0.1,0.2-0.1,0.1-0.3c-0.3-1.1-0.7-2.4-1-3.5c-0.2-0.6-0.6-0.9-1.1-1h-1.3c-0.6,0.1-1,0.5-1.2,1.2
			c-0.4,1.1-0.7,2.3-1,3.4c0,0.2,0,0.2,0.1,0.3C10.1,5.5,11,5.8,12,5.8z"/>
	</g>
</g>
</svg>
