<?xml version="1.0" encoding="utf-8"?>
<!-- Generator: Adobe Illustrator 26.2.1, SVG Export Plug-In . SVG Version: 6.00 Build 0)  -->
<svg version="1.1" baseProfile="tiny" id="Capa_1" xmlns="http://www.w3.org/2000/svg" xmlns:xlink="http://www.w3.org/1999/xlink"
	 x="0px" y="0px" viewBox="0 0 24 24" overflow="visible" xml:space="preserve">
<path id="Rectangle_76" fill="#FFADF8" d="M3.2,0h17.7C22.6,0,24,1.4,24,3.2v17.7c0,1.7-1.4,3.2-3.2,3.2H3.2C1.4,24,0,22.6,0,20.8
	V3.2C0,1.4,1.4,0,3.2,0z"/>
<path fill="#321466" d="M12,21.2c-1.3,0-2.6-0.4-3.7-1c-0.1,0-0.2-0.1-0.2-0.2c-0.8-1.8-1.6-3.4-2.3-5.2c-0.1-0.1-0.1-0.2,0-0.4
	c0.3-1,0.7-1.8,1.2-2.6c0.8-1.2,1.6-2.4,2.6-3.3c0.4-0.4,0.9-0.8,1.4-1.1c0.5-0.4,1.1-0.4,1.7,0c0.1,0.1,0.3,0.2,0.4,0.3
	c0.6,0.4,1.2,1,1.8,1.6c1,1.1,1.8,2.2,2.6,3.5c0.4,0.6,0.6,1.1,0.8,1.8v0.3c-0.5,1.2-1.1,2.6-1.7,3.8c-0.2,0.4-0.4,0.9-0.6,1.4
	c-0.1,0.1-0.1,0.2-0.3,0.3c-0.9,0.5-1.8,0.8-2.8,1C12.5,21.2,12.2,21.2,12,21.2z M12,19.2c1.6,0,2.9-1.3,2.9-2.9
	c0-1.6-1.3-2.9-2.9-2.9s-2.9,1.3-2.9,2.9C9,17.8,10.3,19.2,12,19.2z M11.9,8.2h-0.2c-0.3,0.1-0.5,0.2-0.8,0.4
	C10.3,9,9.8,9.4,9.3,9.9c-0.1,0.1-0.1,0.2,0,0.3c0.1,0.1,0.2,0.1,0.3-0.1l0.7-0.7C10.6,9,11,8.8,11.3,8.6c0.4-0.2,0.7-0.2,1.1,0
	c0.2,0.1,0.3,0.2,0.4,0.3c0.5,0.4,1,0.8,1.4,1.2c0.1,0.1,0.2,0.1,0.3,0.1c0.1-0.1,0.1-0.2,0-0.3l-1-1c-0.3-0.3-0.5-0.4-0.9-0.6
	C12.5,8.2,12.2,8.2,11.9,8.2z M21.2,14.8c0,0.1,0,0.1-0.1,0.2c-0.7,1.7-1.5,3.3-2.2,4.9l-0.8,1.8c-0.2,0.4-0.4,0.4-0.7,0.2
	c-0.1-0.1-0.1-0.2-0.1-0.3c0.1-0.3,0.3-0.5,0.4-0.8c0.1-0.1,0-0.3-0.1-0.3c-0.1-0.1-0.2,0-0.3,0.1c-0.1,0.3-0.3,0.5-0.4,0.7
	c-0.1,0.3-0.2,0.3-0.4,0.2L16,21.3c-0.3-0.1-0.4-0.3-0.2-0.5c0.4-0.8,0.7-1.7,1.1-2.5c0.5-1.1,1.1-2.3,1.5-3.4
	c0.1-0.3,0.3-0.5,0.4-0.9c0.1-0.2,0.3-0.3,0.5-0.2l0.5,0.3c0.2,0.1,0.3,0.2,0.2,0.4c-0.3,0.7-0.6,1.4-0.9,2
	c-0.4,0.9-0.8,1.7-1.1,2.6v0.2c0,0.1,0.1,0.1,0.2,0.1s0.2,0,0.2-0.1c0.1-0.3,0.3-0.5,0.4-0.8c0.5-1.3,1.1-2.6,1.7-3.9
	c0.1-0.2,0.2-0.2,0.4-0.2C21.1,14.4,21.2,14.5,21.2,14.8z M8,20.7c0,0.2-0.1,0.3-0.2,0.4c-0.2,0.1-0.4,0.2-0.6,0.3
	c-0.2,0.1-0.3,0-0.4-0.2c-0.1-0.3-0.3-0.5-0.4-0.8c0-0.1-0.1-0.2-0.2-0.2s-0.2,0.2-0.1,0.3c0.1,0.3,0.2,0.5,0.4,0.7
	c0.1,0.3,0.1,0.4-0.1,0.4c-0.3,0.2-0.5,0.1-0.6-0.1c-0.1-0.3-0.3-0.5-0.4-0.8c-0.9-2-1.8-4-2.6-6c0-0.1-0.1-0.1-0.1-0.2
	c0-0.2,0-0.3,0.2-0.4c0,0,0.1,0,0.1-0.1c0.2-0.1,0.3,0,0.4,0.2c0.2,0.4,0.4,0.9,0.6,1.3c0.4,1.2,0.9,2.3,1.4,3.4c0,0,0,0.1,0.1,0.1
	c0.1,0.1,0.2,0.1,0.3,0c0.1-0.1,0.1-0.2,0.1-0.3c-0.1-0.3-0.3-0.5-0.4-0.8c-0.6-1.3-1.1-2.6-1.8-3.9c-0.1-0.3-0.1-0.4,0.2-0.4
	l0.5-0.3c0.3-0.1,0.4,0,0.5,0.2L7.4,19c0.3,0.5,0.4,1,0.7,1.5C7.9,20.7,8,20.7,8,20.7z M11.7,3.3H5.2c-0.1,0-0.1-0.1-0.1-0.1
	s0-0.1,0.1-0.2C5.4,3,5.5,2.9,5.7,2.7C6,2.5,6.2,2.4,6.5,2.3C6.8,2.1,7.1,2,7.4,2h8.5c0.3,0,0.6,0.1,0.9,0.2c0.5,0.3,1,0.5,1.5,0.8
	c0.1,0,0.2,0.1,0.1,0.2c0,0.1-0.1,0.1-0.2,0.1C16,3.3,13.9,3.3,11.7,3.3z M5.9,13l-0.2-0.2c-0.4-0.7-0.8-1.4-1.2-2.2
	C4.1,9.9,3.7,9.1,3.2,8.3C3.1,8.2,3,7.9,3.1,7.6c0-0.4,0-0.8,0.1-1.2c0-0.1,0-0.2,0.1-0.3c0.1,0,0.2,0.1,0.2,0.2
	c1.1,1.8,2,3.6,3.1,5.5v0.2c-0.2,0.3-0.4,0.6-0.5,0.9C6,12.9,6,13,5.9,13z M20.4,7.1v0.6c0,0.2,0,0.4-0.2,0.5l-2.4,4.2
	c0,0.1-0.1,0.1-0.2,0.1l-0.1-0.1c-0.2-0.3-0.4-0.6-0.5-0.9v-0.2C18,9.7,19,8,20,6.2c0-0.1,0.1-0.1,0.2-0.1c0.3,0.1,0.3,0.2,0.3,0.3
	C20.4,6.4,20.4,7.1,20.4,7.1z M17.9,3.7h1.2c0.1,0,0.2,0.1,0.3,0.2c0.3,0.4,0.5,0.9,0.8,1.2c0.1,0.1,0.1,0.2,0,0.3
	c-0.2,0.4-0.4,0.6-0.5,1C19.1,5.5,18.6,4.6,17.9,3.7z M5.5,3.7C5,4.6,4.5,5.4,3.9,6.4C3.8,6.2,3.8,6.1,3.7,6
	C3.5,5.8,3.4,5.6,3.2,5.3C3.2,5.3,3.2,5.2,3.2,5C3.5,4.6,3.8,4.2,4,3.8c0.1-0.1,0.1-0.2,0.3-0.2L5.5,3.7C5.4,3.7,5.5,3.7,5.5,3.7z"
	/>
</svg>
