<?xml version="1.0" encoding="utf-8"?>
<!-- Generator: Adobe Illustrator 26.2.1, SVG Export Plug-In . SVG Version: 6.00 Build 0)  -->
<svg version="1.1" id="Capa_1" xmlns="http://www.w3.org/2000/svg" xmlns:xlink="http://www.w3.org/1999/xlink" x="0px" y="0px"
	 viewBox="0 0 24 24" style="enable-background:new 0 0 24 24;" xml:space="preserve">
<style type="text/css">
	.st0{fill:url(#SVGID_1_);}
</style>
<g>
	<g>
		<linearGradient id="SVGID_1_" gradientUnits="userSpaceOnUse" x1="12" y1="3.4052" x2="12" y2="22.7562">
			<stop  offset="0" style="stop-color:#FFFFFF"/>
			<stop  offset="1" style="stop-color:#808080"/>
		</linearGradient>
		<path class="st0" d="M23.9,10.8C22.7,10.1,22,9,21.7,7.7c-0.5-1.8-0.4-3.7-0.1-5.5c0.1-0.4,0-0.5-0.3-0.6c-1.3-0.5-2.6-1-3.8-1.5
			c-0.2-0.1-0.4,0-0.5,0c-0.7,0.2-1.6,0.5-2.3,0.7c-1.2,0.3-2.4,0.5-3.7,0.3S8.3,0.5,7.1,0.1C6.8,0,6.6,0,6.5,0.1
			C5.2,0.5,4,1,2.7,1.6C2.4,1.7,2.3,1.9,2.4,2.2c0.3,1.7,0.4,3.3,0.1,5c-0.3,1.5-1.1,2.9-2.3,3.7C0,11-0.1,11.2-0.1,11.3v11.5
			c0,0.6,0.5,1.2,1.3,1.2h9.1c0.4,0,0.7-0.1,1.1-0.3c0.1-0.1,0.2-0.2,0.2-0.4V20h-1.1c-0.4,0-0.5-0.1-0.6-0.4H0.8v-2H10v-0.2
			c0-0.4,0.1-0.5,0.6-0.5h1v-1.6h-1c-0.5,0-0.6-0.1-0.6-0.5v-0.2H0.9v-1.6h9.2v-0.1c0-0.5,0.1-0.6,0.6-0.6h1V7.7
			c0-0.1,0-0.3-0.1-0.4L8.1,1.6c0-0.1,0-0.2-0.1-0.3c1.4,0.5,2.8,0.9,4.3,0.9c1.5,0,2.9-0.3,4.3-0.9c-0.1,0.2-0.2,0.2-0.2,0.3
			c-1.3,1.9-2.4,3.8-3.6,5.7c-0.1,0.1-0.1,0.3-0.1,0.4v4.5h1.1c0.5,0,0.6,0.1,0.6,0.5v0.2h9.1v1.6h-9.2v0.2c0,0.5-0.1,0.6-0.6,0.6
			h-1V17h1.1c0.2,0,0.4,0.1,0.4,0.4v0.4h9.2v2h-9.1c-0.2,0.4-0.2,0.4-0.6,0.4h-1h0c0,1.1,0,2-0.1,2.8c-0.1,0.4,0.1,0.7,0.5,0.9
			c0.2,0,0.4,0.1,0.6,0.1h9.2c0.6,0,1.2-0.5,1.2-1.2V11.2C24.1,11.1,24,10.9,23.9,10.8z M13.3,13H11v1.6h2.3V13z M13.3,17.9H11v1.6
			h2.3V17.9z"/>
	</g>
</g>
</svg>
