<?xml version="1.0" encoding="utf-8"?>
<!-- Generator: Adobe Illustrator 26.2.1, SVG Export Plug-In . SVG Version: 6.00 Build 0)  -->
<svg version="1.1" id="Capa_1" xmlns="http://www.w3.org/2000/svg" xmlns:xlink="http://www.w3.org/1999/xlink" x="0px" y="0px"
	 viewBox="0 0 24 24" style="enable-background:new 0 0 24 24;" xml:space="preserve">
<style type="text/css">
	.st0{fill:url(#SVGID_1_);}
	.st1{fill:url(#SVGID_00000161613131318700909950000000582278956003980683_);}
</style>
<g>
	<linearGradient id="SVGID_1_" gradientUnits="userSpaceOnUse" x1="12" y1="9.972541e-02" x2="12" y2="24.0997">
		<stop  offset="0" style="stop-color:#FFFFFF"/>
		<stop  offset="1" style="stop-color:#808080"/>
	</linearGradient>
	<path class="st0" d="M22.5,0h-21C1.1,0,0.7,0.2,0.4,0.4C0.2,0.7,0,1.1,0,1.5v21C0,23.3,0.7,24,1.5,24h21c0.4,0,0.8-0.2,1.1-0.4
		c0.3-0.3,0.4-0.6,0.4-1.1v-21C24,0.7,23.3,0,22.5,0z M22.6,22.6H1.5c-0.1,0-0.1-0.1-0.1-0.1V1.4v0c0,0,0.1,0,0,0h21.1
		c0.1,0,0.1,0.1,0.1,0.1V22.6z"/>
	
		<linearGradient id="SVGID_00000145044087437093191300000010676932716326708609_" gradientUnits="userSpaceOnUse" x1="11.975" y1="9.972541e-02" x2="11.975" y2="24.0859">
		<stop  offset="0" style="stop-color:#FFFFFF"/>
		<stop  offset="1" style="stop-color:#808080"/>
	</linearGradient>
	<path style="fill:url(#SVGID_00000145044087437093191300000010676932716326708609_);" d="M20.8,9.7h-9.3L16,5.1
		c0.1-0.1,0.2-0.4,0.1-0.5s-0.3-0.3-0.5-0.3h-5.2c-0.1,0-0.3,0.1-0.4,0.1l-7.2,7.2c-0.2,0.2-0.2,0.5,0,0.7l7.2,7.2
		c0.1,0.1,0.2,0.1,0.4,0.1h5.2c0.2,0,0.4-0.1,0.5-0.3s0-0.4-0.1-0.5l-4.5-4.5h9.3c0.3,0,0.5-0.2,0.5-0.5v-3.7
		C21.3,9.9,21,9.7,20.8,9.7z"/>
</g>
</svg>
