<?xml version="1.0" encoding="utf-8"?>
<!-- Generator: Adobe Illustrator 26.2.1, SVG Export Plug-In . SVG Version: 6.00 Build 0)  -->
<svg version="1.1" id="Capa_1" xmlns="http://www.w3.org/2000/svg" xmlns:xlink="http://www.w3.org/1999/xlink" x="0px" y="0px"
	 viewBox="0 0 24 24" style="enable-background:new 0 0 24 24;" xml:space="preserve">
<style type="text/css">
	.st0{fill:#FFADF8;}
	.st1{fill:none;}
	.st2{fill:#321466;}
</style>
<path id="Rectangle_76" class="st0" d="M1.8,0h20.4c1,0,1.8,0.8,1.8,1.8v20.4c0,1-0.8,1.8-1.8,1.8H1.8c-1,0-1.8-0.8-1.8-1.8V1.8
	C0,0.8,0.8,0,1.8,0z"/>
<path id="Vector-2" class="st1" d="M20,20H4V4h16V20z"/>
<g>
	<path class="st2" d="M19.9,2.5H4.1c-0.3,0-0.6,0.2-0.8,0.3C3.2,3,3,3.3,3,3.6v15.7c0,0.6,0.5,1.1,1.1,1.1h15.8
		c0.3,0,0.6-0.2,0.8-0.3c0.2-0.2,0.3-0.4,0.3-0.8V3.6C21,3,20.5,2.5,19.9,2.5z M20,19.4H4.1c-0.1,0-0.1-0.1-0.1-0.1V3.6v0
		c0,0,0,0,0,0h15.8C20,3.5,20,3.6,20,3.6V19.4z"/>
	<path class="st2" d="M18.6,9.8h-7L15,6.3c0.1-0.1,0.2-0.3,0.1-0.4c-0.1-0.1-0.2-0.2-0.4-0.2h-3.9c-0.1,0-0.2,0.1-0.3,0.1l-5.4,5.4
		c-0.2,0.1-0.2,0.4,0,0.5l5.4,5.4c0.1,0.1,0.1,0.1,0.3,0.1h3.9c0.1,0,0.3-0.1,0.4-0.2c0.1-0.1,0-0.3-0.1-0.4l-3.4-3.4h7
		c0.2,0,0.4-0.2,0.4-0.4v-2.8C19,9.9,18.8,9.8,18.6,9.8z"/>
</g>
</svg>
