<?xml version="1.0" encoding="utf-8"?>
<!-- Generator: Adobe Illustrator 26.2.1, SVG Export Plug-In . SVG Version: 6.00 Build 0)  -->
<svg version="1.1" id="Capa_1" xmlns="http://www.w3.org/2000/svg" xmlns:xlink="http://www.w3.org/1999/xlink" x="0px" y="0px"
	 viewBox="0 0 24 24" style="enable-background:new 0 0 24 24;" xml:space="preserve">
<style type="text/css">
	.st0{fill:url(#SVGID_1_);}
</style>
<g>
	<g>
		<linearGradient id="SVGID_1_" gradientUnits="userSpaceOnUse" x1="12.3111" y1="2.7798" x2="11.6445" y2="22.5347">
			<stop  offset="0" style="stop-color:#FFFFFF"/>
			<stop  offset="1" style="stop-color:#808080"/>
		</linearGradient>
		<path class="st0" d="M23.7,11.2L12.8,0.3C12.6,0.2,12.3,0,12,0s-0.6,0.1-0.8,0.3L0.3,11.2c-0.4,0.4-0.4,1.1,0,1.5l10.9,10.9
			c0.2,0.2,0.5,0.3,0.8,0.3s0.6-0.1,0.8-0.3l10.9-10.9C24.1,12.3,24.1,11.7,23.7,11.2z M22.4,12L12.1,22.5h-0.2L1.6,12.2V12L12,1.7
			L22.4,12L22.4,12z M10.1,11.8c0.1,0.2,0.4,0.2,0.5,0l0.4-1.3l0.4,0.3c1.2,0.7,1.9,1.1,1.9,2.2v5.4H16v-5.7c0-2.5-2.3-3.9-3.6-4.5
			l0.9-1c0.2-0.2,0-0.5-0.2-0.5L7.5,6.8L10.1,11.8z"/>
	</g>
</g>
</svg>
